<svg width="49" height="50" fill="none" xmlns="http://www.w3.org/2000/svg"><path fill-rule="evenodd" clip-rule="evenodd" d="M24.5.944C10.969.944 0 11.914 0 25.448c0 4.631 1.286 8.969 3.523 12.664l-2.185 7.43a2.475 2.475 0 0 0 3.072 3.072l7.428-2.185A24.39 24.39 0 0 0 24.5 49.952c13.531 0 24.5-10.97 24.5-24.504S38.031.944 24.5.944Zm-5.542 30.05c4.956 4.954 9.687 5.608 11.358 5.67 2.54.093 5.015-1.848 5.978-4.1a1.706 1.706 0 0 0-.215-1.723c-1.343-1.715-3.158-2.947-4.932-4.173a1.742 1.742 0 0 0-2.384.388l-1.47 2.242a.561.561 0 0 1-.747.186c-.997-.571-2.45-1.541-3.494-2.585s-1.955-2.431-2.467-3.365a.557.557 0 0 1 .164-.713l2.264-1.68a1.744 1.744 0 0 0 .294-2.304c-1.098-1.608-2.377-3.651-4.231-5.006a1.703 1.703 0 0 0-1.676-.184c-2.254.965-4.204 3.44-4.111 5.986.061 1.671.715 6.403 5.67 11.36Z" fill="#000"/></svg>