<svg width="200" height="49" fill="none" xmlns="http://www.w3.org/2000/svg"><path d="M4.928 47.126h13.248c2.048 0 3.883-.448 5.504-1.344a13.905 13.905 0 0 0 4.224-3.648 16.436 16.436 0 0 0 2.624-4.992c.64-1.877.96-3.754.96-5.632a16.8 16.8 0 0 0-.96-5.568c-.597-1.877-1.472-3.541-2.624-4.992a13.15 13.15 0 0 0-4.224-3.584c-1.621-.938-3.456-1.408-5.504-1.408-1.792 0-3.605.363-5.44 1.088l-.256-.512c1.28-.597 2.24-1.472 2.88-2.624a8.01 8.01 0 0 0 .96-3.84c0-.81-.128-1.621-.384-2.432a6.658 6.658 0 0 0-1.152-2.176 5.545 5.545 0 0 0-1.856-1.6c-.683-.426-1.472-.64-2.368-.64H4.928v43.904Zm-3.392.576V2.646h9.024a9.57 9.57 0 0 1 3.264.576c1.11.384 2.09.918 2.944 1.6a7.75 7.75 0 0 1 2.048 2.496c.555.982.832 2.07.832 3.264 0 1.792-.619 3.371-1.856 4.736 2.347 0 4.544.406 6.592 1.216 2.09.811 3.904 1.942 5.44 3.392 1.536 1.451 2.752 3.179 3.648 5.184.896 1.963 1.344 4.096 1.344 6.4 0 2.262-.448 4.395-1.344 6.4a16.252 16.252 0 0 1-3.648 5.12c-1.493 1.451-3.264 2.603-5.312 3.456a16.745 16.745 0 0 1-6.336 1.216H1.536Zm41.042-.064h-3.392V27.35L32.018 2.326h3.648l6.72 23.552 6.208-23.552h.64l-6.656 25.216v20.096Zm40.108-28.864c0-2.432-.384-4.714-1.152-6.848-.768-2.133-1.834-4.01-3.2-5.632a15.322 15.322 0 0 0-4.672-3.776 12.232 12.232 0 0 0-5.76-1.408c-2.09 0-4.032.47-5.824 1.408-1.749.939-3.285 2.198-4.608 3.776-1.365 1.622-2.431 3.499-3.2 5.632-.768 2.134-1.152 4.416-1.152 6.848v28.864h-3.52V18.774c0-2.517.47-4.885 1.409-7.104.98-2.218 2.303-4.138 3.968-5.76a18.15 18.15 0 0 1 5.823-3.904c2.22-.981 4.587-1.472 7.105-1.472 2.517 0 4.885.491 7.103 1.472a18.15 18.15 0 0 1 5.825 3.904c1.663 1.622 2.965 3.542 3.903 5.76.982 2.219 1.473 4.587 1.473 7.104 0 2.518-.491 4.886-1.472 7.104a18.151 18.151 0 0 1-3.904 5.824 19.05 19.05 0 0 1-5.825 3.968c-2.218.939-4.586 1.408-7.103 1.408-1.707 0-3.435-.234-5.185-.704l18.368 11.264h-1.151L58.75 34.646l.32-.512c2.773 1.579 5.717 2.368 8.832 2.368 2.047 0 3.968-.469 5.76-1.408a15.322 15.322 0 0 0 4.672-3.776c1.365-1.621 2.431-3.498 3.2-5.632.767-2.133 1.151-4.437 1.151-6.912Zm20.104.704v.64H92.678v27.008h11.328v.576h-14.72V2.646h12.416v.576h-9.024v16.256h10.112Zm7.701 27.648h12.16c2.944 0 5.632-.618 8.064-1.856a20.746 20.746 0 0 0 6.4-4.928 22.626 22.626 0 0 0 4.16-6.976 23.378 23.378 0 0 0 1.472-8.192c0-2.816-.491-5.525-1.472-8.128-.982-2.645-2.368-4.992-4.16-7.04a20.747 20.747 0 0 0-6.4-4.928c-2.432-1.237-5.12-1.856-8.064-1.856h-12.16v43.904Zm12.16-44.48c3.114 0 6.122.576 9.024 1.728 2.901 1.11 5.461 2.667 7.679 4.672 2.262 1.963 4.054 4.331 5.377 7.104 1.322 2.774 1.984 5.782 1.984 9.024 0 3.243-.662 6.251-1.984 9.024a22.523 22.523 0 0 1-5.377 7.104c-2.218 2.006-4.778 3.584-7.679 4.736a25.064 25.064 0 0 1-9.024 1.664h-15.552V2.646h15.552Zm51.327-1.536c-3.115 0-5.909.704-8.384 2.112a20.382 20.382 0 0 0-6.336 5.44c-1.749 2.219-3.093 4.736-4.032 7.552-.939 2.816-1.408 5.654-1.408 8.512 0 2.816.469 5.632 1.408 8.448.939 2.816 2.283 5.355 4.032 7.616a21.57 21.57 0 0 0 6.336 5.44c2.475 1.366 5.269 2.048 8.384 2.048s5.909-.682 8.384-2.048a21.299 21.299 0 0 0 6.4-5.44c1.749-2.261 3.093-4.8 4.032-7.616.939-2.816 1.408-5.632 1.408-8.448 0-2.858-.469-5.696-1.408-8.512-.939-2.816-2.283-5.333-4.032-7.552a20.15 20.15 0 0 0-6.4-5.44c-2.475-1.408-5.269-2.112-8.384-2.112Zm0-.576c3.328 0 6.464.64 9.408 1.92 2.944 1.238 5.504 2.966 7.68 5.184 2.219 2.176 3.947 4.736 5.184 7.68 1.28 2.944 1.92 6.08 1.92 9.408 0 3.328-.64 6.464-1.92 9.408-1.237 2.944-2.965 5.504-5.184 7.68-2.176 2.176-4.736 3.904-7.68 5.184-2.944 1.28-6.08 1.92-9.408 1.92-3.328 0-6.464-.64-9.408-1.92-2.944-1.28-5.504-3.008-7.68-5.184s-3.904-4.736-5.184-7.68c-1.28-2.944-1.92-6.08-1.92-9.408 0-3.328.64-6.464 1.92-9.408 1.28-2.944 3.008-5.504 5.184-7.68 2.176-2.218 4.736-3.946 7.68-5.184 2.944-1.28 6.08-1.92 9.408-1.92Z" fill="#000101"/></svg>