<svg width="209" height="42" fill="none" xmlns="http://www.w3.org/2000/svg"><path d="M185.493 16.308a13.502 13.502 0 0 0-3.78 4.752c-.864 1.836-1.296 3.798-1.296 5.886 0 1.8.324 3.51.972 5.13a14.45 14.45 0 0 0 2.754 4.212 13.083 13.083 0 0 0 4.05 2.916c1.548.72 3.204 1.08 4.968 1.08 1.692 0 3.276-.324 4.752-.972 1.476-.648 2.754-1.512 3.834-2.592a11.873 11.873 0 0 0 2.592-3.888c.648-1.512.972-3.114.972-4.806 0-3.312-.918-5.94-2.754-7.884-1.908-2.016-4.914-3.51-9.018-4.482a15.41 15.41 0 0 1-2.808-1.026 8.649 8.649 0 0 1-2.268-1.62 7.974 7.974 0 0 1-1.566-2.214c-.396-.864-.594-1.836-.594-2.916 0-1.044.198-2.034.594-2.97a7.563 7.563 0 0 1 1.62-2.43A7.754 7.754 0 0 1 191.001.81a7.544 7.544 0 0 1 2.97-.594c1.044 0 2.034.198 2.97.594a7.16 7.16 0 0 1 2.43 1.674 7.16 7.16 0 0 1 1.674 2.43c.396.9.594 1.89.594 2.97 0 .576-.09 1.26-.27 2.052l-.54-.108c.108-.324.18-.648.216-.972.036-.324.054-.648.054-.972 0-.936-.18-1.818-.54-2.646a6.681 6.681 0 0 0-1.404-2.268 6.508 6.508 0 0 0-2.16-1.512 6.055 6.055 0 0 0-2.646-.594c-.828 0-1.602.162-2.322.486-.72.324-1.35.756-1.89 1.296a6.884 6.884 0 0 0-1.242 1.89 6.05 6.05 0 0 0-.432 2.268c0 .936.144 1.728.432 2.376a4.951 4.951 0 0 0 1.296 1.566c.54.432 1.152.792 1.836 1.08.72.252 1.458.468 2.214.648 2.16.504 4.086 1.17 5.778 1.998 1.728.828 3.186 1.818 4.374 2.97a11.62 11.62 0 0 1 2.754 4.104c.648 1.548.972 3.348.972 5.4 0 1.944-.378 3.78-1.134 5.508a13.32 13.32 0 0 1-3.024 4.482c-1.26 1.26-2.754 2.268-4.482 3.024-1.692.72-3.528 1.08-5.508 1.08-1.944 0-3.78-.36-5.508-1.08a15.362 15.362 0 0 1-4.482-3.024 15.362 15.362 0 0 1-3.024-4.482c-.72-1.728-1.08-3.564-1.08-5.508 0-2.16.45-4.194 1.35-6.102.9-1.908 2.214-3.546 3.942-4.914l.324.378Zm-8.194 17.982a6.564 6.564 0 0 1-2.052 4.806 6.127 6.127 0 0 1-2.214 1.404c-.828.36-1.71.54-2.646.54-.936 0-1.836-.18-2.7-.54a6.927 6.927 0 0 1-2.16-1.458 6.927 6.927 0 0 1-1.458-2.16 6.953 6.953 0 0 1-.54-2.7V1.728h2.862V34.29c0 1.44.504 2.664 1.512 3.672s2.232 1.512 3.672 1.512 2.664-.504 3.672-1.512 1.512-2.232 1.512-3.672V1.728h.54V34.29Zm-19.338-18.684c0-2.052-.324-3.978-.972-5.778-.648-1.8-1.548-3.384-2.7-4.752a12.927 12.927 0 0 0-3.942-3.186 10.32 10.32 0 0 0-4.86-1.188c-1.764 0-3.402.396-4.914 1.188a13.16 13.16 0 0 0-3.888 3.186c-1.152 1.368-2.052 2.952-2.7 4.752-.648 1.8-.972 3.726-.972 5.778V39.96h-2.97V15.606c0-2.124.396-4.122 1.188-5.994.828-1.872 1.944-3.492 3.348-4.86a15.315 15.315 0 0 1 4.914-3.294c1.872-.828 3.87-1.242 5.994-1.242 2.124 0 4.122.414 5.994 1.242 1.872.792 3.51 1.89 4.914 3.294 1.404 1.368 2.502 2.988 3.294 4.86.828 1.872 1.242 3.87 1.242 5.994 0 2.124-.414 4.122-1.242 5.994a15.315 15.315 0 0 1-3.294 4.914 16.074 16.074 0 0 1-4.914 3.348c-1.872.792-3.87 1.188-5.994 1.188-1.44 0-2.898-.198-4.374-.594l15.498 9.504h-.972l-17.874-10.962.27-.432c2.34 1.332 4.824 1.998 7.452 1.998 1.728 0 3.348-.396 4.86-1.188a12.927 12.927 0 0 0 3.942-3.186c1.152-1.368 2.052-2.952 2.7-4.752.648-1.8.972-3.744.972-5.832ZM127.473 1.728V39.96h-2.862V1.728h2.862Zm-5.302 0h.486l-6.804 38.664h-.648l-6.588-38.664h2.97l5.13 30.888 5.454-30.888ZM101.707 39.96h-2.862V22.842L92.797 1.728h3.078l5.67 19.872 5.238-19.872h.54l-5.616 21.276V39.96Zm-16.19 0h-2.862V2.268h-5.346v-.54h13.554v.54h-5.346V39.96ZM74.73 34.29a6.564 6.564 0 0 1-2.051 4.806 6.127 6.127 0 0 1-2.214 1.404c-.828.36-1.71.54-2.646.54-.936 0-1.836-.18-2.7-.54a6.927 6.927 0 0 1-2.16-1.458 6.927 6.927 0 0 1-1.458-2.16 6.953 6.953 0 0 1-.54-2.7V1.728h2.862V34.29c0 1.44.504 2.664 1.512 3.672s2.232 1.512 3.672 1.512 2.664-.504 3.672-1.512 1.512-2.232 1.512-3.672V1.728h.54V34.29ZM53.389 23.004l-2.16-13.986-2.268 13.986h4.428Zm5.508 17.01h-2.862l-2.538-16.47h-4.59l-2.646 16.47h-.54L52.147 0h.594l6.156 40.014ZM42.085 16.2v.54h-8.532v22.788h9.558v.486h-12.42V1.998h10.476v.486h-7.614V16.2h8.532ZM2.862 39.528H14.04c1.728 0 3.276-.378 4.644-1.134a11.732 11.732 0 0 0 3.564-3.078 13.868 13.868 0 0 0 2.214-4.212c.54-1.584.81-3.168.81-4.752 0-1.584-.27-3.15-.81-4.698-.504-1.584-1.242-2.988-2.214-4.212a11.095 11.095 0 0 0-3.564-3.024c-1.368-.792-2.916-1.188-4.644-1.188-1.512 0-3.042.306-4.59.918l-.216-.432c1.08-.504 1.89-1.242 2.43-2.214.54-1.008.81-2.088.81-3.24 0-.684-.108-1.368-.324-2.052a5.618 5.618 0 0 0-.972-1.836 4.678 4.678 0 0 0-1.566-1.35c-.576-.36-1.242-.54-1.998-.54H2.862v37.044ZM0 40.014V1.998h7.614c.936 0 1.854.162 2.754.486a8.267 8.267 0 0 1 2.484 1.35A6.539 6.539 0 0 1 14.58 5.94c.468.828.702 1.746.702 2.754 0 1.512-.522 2.844-1.566 3.996 1.98 0 3.834.342 5.562 1.026 1.764.684 3.294 1.638 4.59 2.862a13.544 13.544 0 0 1 3.078 4.374c.756 1.656 1.134 3.456 1.134 5.4 0 1.908-.378 3.708-1.134 5.4a13.712 13.712 0 0 1-3.078 4.32c-1.26 1.224-2.754 2.196-4.482 2.916a14.127 14.127 0 0 1-5.346 1.026H0Z" fill="#000101"/></svg>