<svg width="64" height="59" fill="none" xmlns="http://www.w3.org/2000/svg"><path d="M56.571 0c1.97 0 3.86.777 5.253 2.16A7.348 7.348 0 0 1 64 7.375v17.973a16.025 16.025 0 0 0-10.186-5.897 16.092 16.092 0 0 0-11.488 2.633 15.88 15.88 0 0 0-6.553 9.731 15.787 15.787 0 0 0 1.941 11.546v4.293H7.43c-1.97 0-3.86-.777-5.253-2.16A7.348 7.348 0 0 1 0 40.28V7.375A7.35 7.35 0 0 1 2.176 2.16 7.456 7.456 0 0 1 7.429 0H56.57ZM48 13.616H16c-.606 0-1.188.239-1.616.664a2.26 2.26 0 0 0 0 3.21c.428.425 1.01.664 1.616.664h32c.606 0 1.188-.24 1.616-.665a2.261 2.261 0 0 0 0-3.209A2.294 2.294 0 0 0 48 13.616ZM32 31.77c0-.602-.24-1.18-.67-1.605a2.294 2.294 0 0 0-1.616-.665H16c-.606 0-1.188.24-1.616.665a2.261 2.261 0 0 0 0 3.21c.428.425 1.01.664 1.616.664h13.714c.607 0 1.188-.24 1.617-.665A2.26 2.26 0 0 0 32 31.77Zm6.857 3.403a12.44 12.44 0 0 0 3.682 8.826 12.618 12.618 0 0 0 8.89 3.655 12.62 12.62 0 0 0 8.889-3.655A12.435 12.435 0 0 0 64 35.173c0-3.31-1.325-6.484-3.682-8.825a12.618 12.618 0 0 0-8.89-3.655 12.618 12.618 0 0 0-8.889 3.655 12.435 12.435 0 0 0-3.682 8.825Zm2.286 12.168a16 16 0 0 0 10.286 3.717 16.001 16.001 0 0 0 10.285-3.717v9.39c0 .405-.109.802-.316 1.15a2.278 2.278 0 0 1-.86.833 2.299 2.299 0 0 1-2.316-.056l-6.793-4.198-6.794 4.198a2.297 2.297 0 0 1-3.177-.778 2.256 2.256 0 0 1-.315-1.151v-9.388Z" fill="#fff"/></svg>