<svg width="48" height="48" fill="none" xmlns="http://www.w3.org/2000/svg"><g clip-path="url(#a)"><g filter="url(#b)" clip-rule="evenodd"><path fill-rule="evenodd" d="M.08 24.453v-2.354l.002-.974.003-.748.004-.63.006-.555.006-.502.008-.461.009-.429.01-.402.01-.38.013-.362.014-.345.015-.331.015-.318.018-.306.018-.296.02-.287.02-.277.022-.27.023-.262.024-.256.025-.249.027-.242.028-.238.029-.231.03-.227.031-.222.033-.217.034-.213.035-.209.036-.205.037-.2.039-.198.04-.194.04-.19.043-.188.043-.183.045-.181.046-.178.047-.175.048-.173.05-.17.05-.166.053-.165.053-.161.055-.16.055-.157.058-.155.058-.152.06-.15.06-.148.062-.146.064-.144.065-.142.065-.14.068-.137.068-.136.07-.134.071-.132.073-.13.074-.129.075-.126.076-.125.078-.123.079-.121.08-.12.082-.118.084-.116.084-.114.086-.113.087-.112.09-.11.09-.107.091-.107.093-.105.095-.104.096-.102.097-.1.099-.099.1-.098.102-.096.103-.094.105-.093.107-.092.108-.09.11-.09.11-.087.113-.086.115-.085.116-.083.118-.082.12-.08.12-.08.123-.078.125-.076.126-.075.128-.074.13-.073.132-.071.134-.07.136-.069.137-.067.14-.066.141-.065.144-.063.146-.063.148-.06.15-.06.152-.059.154-.057.157-.056.16-.054.161-.054.164-.052.167-.05.17-.05.172-.049.174-.047.178-.046.18-.045.185-.044.186-.042.19-.041.194-.04.197-.039.2-.037.205-.036.209-.035.212-.034.217-.033.222-.031.226-.03.232-.03.236-.028.243-.026.248-.026.255-.024.261-.023.27-.022.277-.02.285-.02.296-.019.305-.017.317-.016.33-.015.343-.013.36-.013.38-.011.4-.01.427-.01.458-.007.498-.007.55-.005.623-.004.736-.003.948-.002h4.703l1.003.001.76.003.638.004.56.006.506.006.463.007.432.01.404.01.382.01.363.012.346.014.332.015.319.015.307.017.297.019.287.019.278.02.27.022.264.023.255.024.25.026.243.026.238.028.232.029.227.03.222.03.218.033.213.034.21.035.204.036.202.037.197.039.195.04.19.04.188.043.184.043.18.045.18.045.174.047.173.049.17.05.167.05.164.052.163.053.16.054.156.056.155.057.153.058.15.06.148.06.147.063.144.063.142.065.14.065.137.068.136.068.134.07.133.07.13.073.128.074.127.075.125.076.123.078.121.079.12.08.118.082.116.083.115.085.113.085.111.088.11.088.109.09.106.092.106.093.103.094.102.096.1.097.1.1.098.1.096.101.095.103.093.105.092.107.09.107.09.11.087.11.086.114.085.114.083.116.082.117.08.12.08.12.078.123.077.125.075.126.074.128.073.13.071.132.07.133.07.136.067.137.066.14.065.141.063.144.063.145.06.148.06.15.059.152.057.154.056.157.055.159.053.161.053.164.05.167.05.17.049.171.047.175.047.177.044.18.044.184.042.187.042.19.04.193.038.197.038.2.036.204.035.208.034.212.033.217.032.221.03.226.03.231.027.236.027.242.026.248.024.255.023.26.022.27.021.276.02.285.018.294.017.304.017.316.014.329.014.343.013.358.011.378.01.398.01.425.007.455.007.495.005.545.005.616.003.725.002.924v4.691l-.001 1.035-.003.774-.004.645-.005.565-.007.51-.007.466-.009.433-.01.407-.01.384-.013.364-.013.348-.014.333-.016.32-.017.307-.018.298-.02.288-.02.279-.022.27-.022.264-.024.257-.026.25-.026.243-.028.238-.028.233-.03.227-.032.223-.032.218-.033.214-.035.21-.036.204-.038.202-.038.198-.04.194-.04.191-.042.188-.044.184-.044.182-.046.178-.047.176-.048.172-.05.17-.05.168-.052.165-.053.162-.054.16-.056.157-.057.155-.058.153-.06.15-.06.149-.062.146-.063.144-.065.142-.065.14-.067.139-.069.136-.07.134-.07.132-.073.13-.073.13-.075.126-.076.125-.078.123-.079.122-.08.12-.082.118-.083.116-.084.115-.086.113-.087.112-.088.11-.09.108-.092.107-.093.105-.094.104-.096.102-.097.101-.098.1-.1.097-.102.096-.103.095-.105.094-.106.092-.108.09-.11.09-.11.087-.113.086-.114.085-.116.084-.117.082-.12.08-.12.08-.123.078-.124.077-.126.075-.128.075-.13.072-.131.072-.134.07-.135.069-.138.067-.139.067-.141.065-.143.063-.146.063-.147.061-.15.06-.152.059-.154.057-.157.056-.158.055-.162.053-.163.053-.167.05-.169.05-.171.05-.175.047-.177.046-.18.045-.183.044-.187.042-.19.042-.192.04-.197.039-.2.037-.204.037-.208.035-.212.034-.216.033-.22.032-.226.03-.23.03-.237.027-.241.027-.248.026-.253.024-.26.024-.269.022-.275.02-.285.02-.293.019-.304.017-.315.017-.327.015-.342.013-.357.013-.376.011-.397.01-.422.01-.453.008-.49.007-.542.005-.609.005-.714.003-.901.002h-4.673l-1.07-.001-.787-.003-.653-.004-.57-.005-.513-.006-.47-.007-.436-.009-.409-.01-.385-.01-.366-.012-.349-.014-.334-.014-.32-.016-.31-.017-.298-.017-.288-.02-.28-.02-.272-.022-.264-.022-.257-.024-.25-.025-.244-.027-.239-.027-.233-.029-.228-.03-.223-.03-.218-.033-.214-.034-.21-.034-.205-.036-.202-.037-.199-.039-.194-.04-.191-.04-.188-.042-.185-.043-.182-.044-.178-.046-.176-.047L8.796 47l-.17-.05-.168-.05-.165-.051-.162-.053-.16-.055-.158-.055-.155-.057-.153-.058-.15-.06-.15-.06-.146-.062-.144-.063-.142-.064-.14-.066-.139-.067-.136-.068-.134-.07-.133-.07-.13-.072-.13-.074-.126-.075-.125-.076-.124-.077-.121-.08-.12-.08-.119-.08-.116-.084-.115-.084-.114-.086-.111-.087-.11-.088-.109-.09-.107-.091-.105-.093-.104-.094-.103-.096-.1-.097-.1-.098-.098-.1-.096-.102-.095-.103-.093-.104-.093-.106-.09-.108-.09-.11-.087-.11-.087-.112-.085-.115-.083-.115-.083-.118-.08-.119-.08-.12-.078-.123-.077-.124-.076-.126-.074-.128-.073-.13-.071-.13-.07-.134-.07-.135-.067-.137-.067-.14-.065-.14-.064-.144-.062-.145-.061-.147-.06-.15-.059-.151-.057-.154-.057-.157-.055-.159-.053-.16-.053-.164-.051-.166-.05-.169-.049-.171-.047-.175-.047-.177-.045-.18-.043-.183-.043-.186-.042-.189-.04-.193-.039-.196-.037-.2-.037-.203-.035-.208-.035-.211-.032-.216-.032-.22-.03-.226-.03-.23-.028-.235-.027-.241-.026-.247-.025-.254-.023-.26-.022-.267-.021-.275-.02-.283-.019-.293-.017-.303-.017-.314L.17 32.7l-.014-.34-.012-.356-.012-.374-.01-.395-.01-.42-.007-.45-.007-.488-.006-.536-.004-.603-.004-.704-.002-.88v-2.702Z" fill="#fff" fill-opacity=".26"/><path d="M.08 24.453v-2.354l.002-.974.003-.748.004-.63.006-.555.006-.502.008-.461.009-.429.01-.402.01-.38.013-.362.014-.345.015-.331.015-.318.018-.306.018-.296.02-.287.02-.277.022-.27.023-.262.024-.256.025-.249.027-.242.028-.238.029-.231.03-.227.031-.222.033-.217.034-.213.035-.209.036-.205.037-.2.039-.198.04-.194.04-.19.043-.188.043-.183.045-.181.046-.178.047-.175.048-.173.05-.17.05-.166.053-.165.053-.161.055-.16.055-.157.058-.155.058-.152.06-.15.06-.148.062-.146.064-.144.065-.142.065-.14.068-.137.068-.136.07-.134.071-.132.073-.13.074-.129.075-.126.076-.125.078-.123.079-.121.08-.12.082-.118.084-.116.084-.114.086-.113.087-.112.09-.11.09-.107.091-.107.093-.105.095-.104.096-.102.097-.1.099-.099.1-.098.102-.096.103-.094.105-.093.107-.092.108-.09.11-.09.11-.087.113-.086.115-.085.116-.083.118-.082.12-.08.12-.08.123-.078.125-.076.126-.075.128-.074.13-.073.132-.071.134-.07.136-.069.137-.067.14-.066.141-.065.144-.063.146-.063.148-.06.15-.06.152-.059.154-.057.157-.056.16-.054.161-.054.164-.052.167-.05.17-.05.172-.049.174-.047.178-.046.18-.045.185-.044.186-.042.19-.041.194-.04.197-.039.2-.037.205-.036.209-.035.212-.034.217-.033.222-.031.226-.03.232-.03.236-.028.243-.026.248-.026.255-.024.261-.023.27-.022.277-.02.285-.02.296-.019.305-.017.317-.016.33-.015.343-.013.36-.013.38-.011.4-.01.427-.01.458-.007.498-.007.55-.005.623-.004.736-.003.948-.002h4.703l1.003.001.76.003.638.004.56.006.506.006.463.007.432.01.404.01.382.01.363.012.346.014.332.015.319.015.307.017.297.019.287.019.278.02.27.022.264.023.255.024.25.026.243.026.238.028.232.029.227.03.222.03.218.033.213.034.21.035.204.036.202.037.197.039.195.04.19.04.188.043.184.043.18.045.18.045.174.047.173.049.17.05.167.05.164.052.163.053.16.054.156.056.155.057.153.058.15.06.148.06.147.063.144.063.142.065.14.065.137.068.136.068.134.07.133.07.13.073.128.074.127.075.125.076.123.078.121.079.12.08.118.082.116.083.115.085.113.085.111.088.11.088.109.09.106.092.106.093.103.094.102.096.1.097.1.1.098.1.096.101.095.103.093.105.092.107.09.107.09.11.087.11.086.114.085.114.083.116.082.117.08.12.08.12.078.123.077.125.075.126.074.128.073.13.071.132.07.133.07.136.067.137.066.14.065.141.063.144.063.145.06.148.06.15.059.152.057.154.056.157.055.159.053.161.053.164.05.167.05.17.049.171.047.175.047.177.044.18.044.184.042.187.042.19.04.193.038.197.038.2.036.204.035.208.034.212.033.217.032.221.03.226.03.231.027.236.027.242.026.248.024.255.023.26.022.27.021.276.02.285.018.294.017.304.017.316.014.329.014.343.013.358.011.378.01.398.01.425.007.455.007.495.005.545.005.616.003.725.002.924v4.691l-.001 1.035-.003.774-.004.645-.005.565-.007.51-.007.466-.009.433-.01.407-.01.384-.013.364-.013.348-.014.333-.016.32-.017.307-.018.298-.02.288-.02.279-.022.27-.022.264-.024.257-.026.25-.026.243-.028.238-.028.233-.03.227-.032.223-.032.218-.033.214-.035.21-.036.204-.038.202-.038.198-.04.194-.04.191-.042.188-.044.184-.044.182-.046.178-.047.176-.048.172-.05.17-.05.168-.052.165-.053.162-.054.16-.056.157-.057.155-.058.153-.06.15-.06.149-.062.146-.063.144-.065.142-.065.14-.067.139-.069.136-.07.134-.07.132-.073.13-.073.13-.075.126-.076.125-.078.123-.079.122-.08.12-.082.118-.083.116-.084.115-.086.113-.087.112-.088.11-.09.108-.092.107-.093.105-.094.104-.096.102-.097.101-.098.1-.1.097-.102.096-.103.095-.105.094-.106.092-.108.09-.11.09-.11.087-.113.086-.114.085-.116.084-.117.082-.12.08-.12.08-.123.078-.124.077-.126.075-.128.075-.13.072-.131.072-.134.07-.135.069-.138.067-.139.067-.141.065-.143.063-.146.063-.147.061-.15.06-.152.059-.154.057-.157.056-.158.055-.162.053-.163.053-.167.05-.169.05-.171.05-.175.047-.177.046-.18.045-.183.044-.187.042-.19.042-.192.04-.197.039-.2.037-.204.037-.208.035-.212.034-.216.033-.22.032-.226.03-.23.03-.237.027-.241.027-.248.026-.253.024-.26.024-.269.022-.275.02-.285.02-.293.019-.304.017-.315.017-.327.015-.342.013-.357.013-.376.011-.397.01-.422.01-.453.008-.49.007-.542.005-.609.005-.714.003-.901.002h-4.673l-1.07-.001-.787-.003-.653-.004-.57-.005-.513-.006-.47-.007-.436-.009-.409-.01-.385-.01-.366-.012-.349-.014-.334-.014-.32-.016-.31-.017-.298-.017-.288-.02-.28-.02-.272-.022-.264-.022-.257-.024-.25-.025-.244-.027-.239-.027-.233-.029-.228-.03-.223-.03-.218-.033-.214-.034-.21-.034-.205-.036-.202-.037-.199-.039-.194-.04-.191-.04-.188-.042-.185-.043-.182-.044-.178-.046-.176-.047L8.796 47l-.17-.05-.168-.05-.165-.051-.162-.053-.16-.055-.158-.055-.155-.057-.153-.058-.15-.06-.15-.06-.146-.062-.144-.063-.142-.064-.14-.066-.139-.067-.136-.068-.134-.07-.133-.07-.13-.072-.13-.074-.126-.075-.125-.076-.124-.077-.121-.08-.12-.08-.119-.08-.116-.084-.115-.084-.114-.086-.111-.087-.11-.088-.109-.09-.107-.091-.105-.093-.104-.094-.103-.096-.1-.097-.1-.098-.098-.1-.096-.102-.095-.103-.093-.104-.093-.106-.09-.108-.09-.11-.087-.11-.087-.112-.085-.115-.083-.115-.083-.118-.08-.119-.08-.12-.078-.123-.077-.124-.076-.126-.074-.128-.073-.13-.071-.13-.07-.134-.07-.135-.067-.137-.067-.14-.065-.14-.064-.144-.062-.145-.061-.147-.06-.15-.059-.151-.057-.154-.057-.157-.055-.159-.053-.16-.053-.164-.051-.166-.05-.169-.049-.171-.047-.175-.047-.177-.045-.18-.043-.183-.043-.186-.042-.189-.04-.193-.039-.196-.037-.2-.037-.203-.035-.208-.035-.211-.032-.216-.032-.22-.03-.226-.03-.23-.028-.235-.027-.241-.026-.247-.025-.254-.023-.26-.022-.267-.021-.275-.02-.283-.019-.293-.017-.303-.017-.314L.17 32.7l-.014-.34-.012-.356-.012-.374-.01-.395-.01-.42-.007-.45-.007-.488-.006-.536-.004-.603-.004-.704-.002-.88v-2.702Z" stroke="#000" stroke-opacity=".04" stroke-width=".49"/></g><path d="m21.65 30.336-5.882-5.883m0 0 5.883-5.883m-5.883 5.883h14.707" stroke="#fff" stroke-width="1.961" stroke-linecap="round" stroke-linejoin="round"/></g><defs><clipPath id="a"><rect x="47.145" y="47.985" width="47.065" height="47.065" rx="23.532" transform="rotate(-180 47.145 47.985)" fill="#fff"/></clipPath><filter id="b" x="-4.088" y="-3.247" width="55.401" height="55.399" filterUnits="userSpaceOnUse" color-interpolation-filters="sRGB"><feFlood flood-opacity="0" result="BackgroundImageFix"/><feGaussianBlur in="BackgroundImageFix" stdDeviation="1.961"/><feComposite in2="SourceAlpha" operator="in" result="effect1_backgroundBlur_4_277"/><feBlend in="SourceGraphic" in2="effect1_backgroundBlur_4_277" result="shape"/></filter></defs></svg>