<svg width="50" height="50" fill="none" xmlns="http://www.w3.org/2000/svg"><circle cx="25" cy="25" r="25" fill="#323232"/><path fill-rule="evenodd" clip-rule="evenodd" d="M24.999 10.833c-7.825 0-14.167 6.343-14.167 14.167 0 2.677.744 5.185 2.037 7.321l-1.264 4.296a1.431 1.431 0 0 0 1.777 1.776l4.295-1.264A14.105 14.105 0 0 0 25 39.167c7.824 0 14.166-6.343 14.166-14.167S32.823 10.833 25 10.833Zm-3.205 17.373c2.866 2.864 5.602 3.243 6.568 3.278 1.469.054 2.9-1.068 3.457-2.37a.986.986 0 0 0-.125-.996c-.776-.992-1.826-1.704-2.852-2.413a1.008 1.008 0 0 0-1.378.224l-.85 1.297a.324.324 0 0 1-.432.107c-.577-.33-1.417-.89-2.02-1.494-.604-.604-1.131-1.406-1.427-1.945a.321.321 0 0 1 .095-.413l1.309-.972a1.009 1.009 0 0 0 .17-1.331c-.635-.93-1.374-2.111-2.447-2.895a.985.985 0 0 0-.969-.106c-1.303.558-2.43 1.99-2.377 3.461.035.966.414 3.702 3.278 6.568Z" fill="#fff"/></svg>