<svg width="50" height="50" fill="none" xmlns="http://www.w3.org/2000/svg"><path d="M25.324.944C11.8.944.824 11.922.824 25.448c0 13.526 10.976 24.504 24.5 24.504s24.5-10.978 24.5-24.504c0-13.526-10.976-24.504-24.5-24.504Zm11.368 16.663c-.367 3.871-1.96 13.281-2.768 17.618-.343 1.838-1.03 2.45-1.666 2.524-1.421.123-2.5-.93-3.871-1.838-2.156-1.42-3.381-2.303-5.464-3.675-2.425-1.593-.857-2.475.54-3.896.367-.368 6.639-6.078 6.761-6.592a.49.49 0 0 0-.122-.441c-.147-.123-.343-.074-.515-.05-.22.05-3.65 2.329-10.339 6.838-.98.661-1.862 1.004-2.646.98-.882-.025-2.548-.49-3.797-.907-1.544-.49-2.744-.76-2.646-1.617.049-.441.661-.882 1.813-1.348 7.154-3.112 11.907-5.17 14.283-6.15 6.811-2.843 8.208-3.333 9.139-3.333.196 0 .661.049.955.294.245.196.319.466.343.662-.024.147.025.588 0 .93Z" fill="#000"/></svg>