<svg width="46" height="46" fill="none" xmlns="http://www.w3.org/2000/svg"><path d="M4.6 23.288c2.013-5.731 7.772-9.871 14.567-9.871 7.584 0 13.882 5.157 15.115 11.933-1.256-.53-2.885-.968-4.533-1.242-3.326-.552-5.865.598-8.04 1.59l-.022.01c-2.212 1.01-4.046 1.848-6.459 1.576-1.922-.217-3.653-.825-5.278-1.545a59.632 59.632 0 0 1-2.128-1.006l-.232-.114a36.564 36.564 0 0 0-2.26-1.035l-.73-.296Z" fill="#CA9818"/><path d="M3.935 26.12a13.61 13.61 0 0 0-.102 1.662c0 3.67 1.469 7.019 3.888 9.558.862.907 1.293 1.36 3.1 2.136 1.81.774 3.056.774 5.551.774h5.59c2.495 0 3.74 0 5.55-.774 1.807-.776 2.239-1.229 3.103-2.136 2.22-2.332 3.638-5.347 3.856-8.663l-.668-.372c-.903-.502-2.596-1.04-4.526-1.36-2.375-.395-4.186.37-6.375 1.37l-.21.096c-2.097.958-4.574 2.093-7.786 1.73-2.329-.262-4.36-.994-6.122-1.774a65.951 65.951 0 0 1-2.223-1.05l-.23-.114a33.842 33.842 0 0 0-2.078-.954l-.318-.129ZM24.074 4.677c.678.676.81 1.686.837 3.469h2.536c1.71 0 3.398.398 4.928 1.163l1.602.802c1.305-1.053 3.45-1.126 5.315-.049 2.292 1.323 3.293 3.882 2.233 5.716-1.058 1.832-3.776 2.246-6.066.924-1.618-.936-2.594-2.486-2.653-3.962l-1.717-.858a8.146 8.146 0 0 0-3.642-.861h-2.53v1.407a18.15 18.15 0 0 0-5.75-.928c-2.013 0-3.949.326-5.75.928V11.02h.205c.186.002.402.004.586 0a3.84 3.84 0 0 0 .99-.146 2.17 2.17 0 0 0 1.165-.834c.318-.456.408-.967.408-1.416 0-.448-.09-.96-.408-1.418a2.175 2.175 0 0 0-1.168-.832 3.755 3.755 0 0 0-.989-.144 16.101 16.101 0 0 0-.582-.002h-.073c.113-.678.322-1.169.705-1.552.848-.844 2.2-.844 4.91-.844 2.711 0 4.066 0 4.907.844Z" fill="#CA9818"/></svg>