<svg width="46" height="46" fill="none" xmlns="http://www.w3.org/2000/svg"><path d="M33.542 9.775c1.916 2.492 2.875 4.792 2.875 7.475 0 3.258-1.342 6.325-4.6 9.775-3.642 3.833-6.9 8.05-6.9 12.267 0 .766.191 1.533.383 2.491 0 .192 0 .384-.192.575-.191.192-.383 0-.383-.191-1.917-2.492-2.875-4.792-2.875-7.475 0-3.259 1.342-6.325 4.6-9.775 3.642-3.834 6.9-8.05 6.9-12.267 0-.767-.192-1.533-.383-2.492 0-.191 0-.383.191-.575.192 0 .192 0 .384.192Zm-14.95-5.75c1.341 1.725 1.916 3.642 1.916 5.367 0 2.491-1.15 4.791-3.45 7.283-2.683 2.875-5.175 6.133-5.175 9.2 0 .575.192 1.342.384 1.725 0 .192 0 .192-.192.383-.192.192-.383 0-.383 0-1.534-1.916-2.109-3.833-2.109-5.558 0-2.492 1.15-4.792 3.45-7.283 2.684-2.875 5.175-6.134 5.175-9.2 0-.575-.191-1.342-.383-1.725v-.384c.383 0 .575 0 .767.192Zm.766 14.95c3.642-3.833 6.9-8.05 6.9-12.267 0-.766-.191-1.533-.383-2.491 0-.192 0-.384.192-.575.191-.192.383 0 .383.191 1.917 2.492 2.875 4.792 2.875 7.475 0 3.259-1.342 6.325-4.6 9.775-3.642 3.834-6.9 8.05-6.9 12.267 0 .767.192 1.533.383 2.492 0 .191 0 .383-.191.575-.192.191-.384 0-.384-.192-1.916-2.492-2.875-4.792-2.875-7.475 0-3.258 1.342-6.325 4.6-9.775Z" fill="#CA9818"/></svg>