<svg width="46" height="46" fill="none" xmlns="http://www.w3.org/2000/svg"><g clip-path="url(#a)"><path fill-rule="evenodd" clip-rule="evenodd" d="M17.25 3.833a1.917 1.917 0 0 0 0 3.834h3.833V11.5h-2.986a5.75 5.75 0 0 0-5.457 3.931l-2.369 7.111a13.417 13.417 0 0 0-.688 4.24v9.635a5.75 5.75 0 0 0 5.75 5.75h15.334a5.75 5.75 0 0 0 5.75-5.75v-9.634a13.42 13.42 0 0 0-.69-4.243l-2.37-7.109a5.75 5.75 0 0 0-5.45-3.931h-2.99V7.667a1.917 1.917 0 0 0 0-3.834H17.25Zm1.917 21.084H13.6c.258-1.31.776-2.573 1.197-3.834h4.369a1.917 1.917 0 1 1 0 3.834Z" fill="#CA9818"/></g><defs><clipPath id="a"><path fill="#fff" d="M0 0h46v46H0z"/></clipPath></defs></svg>