<svg width="49" height="48" fill="none" xmlns="http://www.w3.org/2000/svg"><g clip-path="url(#a)"><g filter="url(#b)" clip-rule="evenodd"><path fill-rule="evenodd" d="m48.03 24.453-.001 2.353-.002.974-.003.748-.004.63-.005.555-.007.502-.008.461-.008.429-.01.402-.011.38-.013.362-.014.345-.014.331-.016.318-.017.306-.018.296-.02.287-.02.277-.022.27-.023.262-.025.256-.025.249-.027.242-.027.238-.03.231-.03.227-.03.222-.034.217-.033.213-.035.21-.036.204-.038.2-.038.198-.04.194-.041.19-.042.188-.044.183-.045.181-.045.178-.048.175-.048.173-.05.17-.05.166-.052.165-.054.161-.054.16-.056.157-.057.155-.058.152-.06.15-.06.148-.063.146-.063.144-.065.142-.066.14-.067.137-.069.136-.07.134-.07.132-.073.13-.074.129-.075.126-.077.125-.078.123-.079.121-.08.12-.082.117-.083.117-.085.114-.086.113-.087.112-.089.11-.09.107-.092.107-.093.105-.094.104-.096.102-.098.1-.098.1-.1.097-.103.096-.103.094-.105.093-.107.092-.108.09-.11.09-.11.087-.113.086-.114.085-.117.083-.117.082-.12.08-.12.08-.124.078-.124.076-.127.075-.128.074-.13.073-.132.071-.133.07-.136.069-.138.067-.14.066-.14.065-.145.063-.145.063-.148.06-.15.06-.152.059-.155.057-.157.056-.16.054-.16.054-.165.052-.167.05-.17.05-.171.05-.175.046-.178.046-.18.045-.184.044-.187.042-.19.041-.194.04-.197.039-.2.037-.205.036-.208.035-.213.034-.217.033-.221.032-.227.03-.231.029-.237.028-.242.026-.249.026-.255.024-.261.023-.27.022-.276.02-.286.02-.295.019-.306.017-.316.016-.33.015-.344.014-.36.012-.379.011-.4.01-.427.01-.458.007-.498.007-.55.005-.624.004-.736.003-.948.002H22.24l-1.004-.001-.76-.003-.638-.004-.56-.005-.505-.007-.464-.007-.431-.01-.405-.01-.382-.01-.363-.012-.346-.014-.332-.015-.319-.015-.307-.017-.296-.018-.288-.02-.278-.02-.27-.022-.263-.023-.256-.024-.25-.025-.243-.027-.237-.028-.232-.029-.228-.03-.222-.03-.218-.033-.213-.034-.209-.035-.205-.036-.201-.037-.198-.039-.194-.04-.19-.04-.188-.043-.184-.043-.181-.044-.179-.046-.175-.047-.173-.049-.17-.05-.166-.05-.165-.052-.162-.053-.16-.054-.157-.056-.155-.057-.152-.058-.15-.06-.15-.06-.145-.063-.144-.063-.142-.065-.14-.065-.138-.068-.136-.068-.134-.07-.132-.07-.13-.073-.129-.074-.127-.075-.124-.076-.124-.078-.12-.079-.12-.08-.119-.082-.116-.083-.115-.084-.113-.086-.111-.088-.11-.088-.108-.09-.107-.092-.105-.093-.104-.094-.102-.096-.1-.097-.1-.1-.097-.1-.096-.101-.095-.103-.093-.105-.092-.106-.09-.108-.09-.11-.087-.11-.086-.114-.085-.114-.084-.116-.082-.117-.08-.12-.08-.12-.078-.123-.077-.125-.075-.126-.074-.128-.073-.13-.07-.132-.07-.133-.07-.136-.067-.137-.066-.14-.065-.141-.064-.144-.062-.145-.061-.148-.06-.15-.058-.152-.058-.154-.056-.157-.055-.159-.053-.161-.052-.164-.051-.167-.05-.17-.049-.17-.047-.176-.046-.177-.045-.18-.044-.184-.042-.187-.041-.19-.04-.193-.039-.197-.038-.2-.036-.204-.035-.208-.034-.212-.033-.217-.031-.221-.03-.226-.03-.231-.028-.236-.027-.242-.025-.248-.025-.255-.023-.26-.022-.27-.02-.276-.02-.284-.019-.295-.017-.304-.016-.316-.015-.329-.014-.343-.012-.358-.012-.378-.01-.398-.009-.425-.008-.455-.007-.495-.005-.545-.004-.616-.003-.725-.002-.924-.001-1.594v-3.097l.002-1.035.003-.774.004-.645.005-.565.006-.51.007-.466.009-.434.01-.406.01-.384.013-.364.013-.348.015-.332.016-.32.017-.308.018-.298.019-.288.02-.279.022-.27.023-.264.024-.257.025-.25.026-.243.028-.238.029-.233.03-.227.031-.223.032-.218.034-.214.035-.21.036-.204.037-.202.038-.198.04-.194.04-.191.043-.188.043-.184.044-.182.046-.178.047-.176.048-.172.05-.17.05-.168.052-.165.053-.162.055-.16.055-.157.057-.155.058-.153.06-.15.06-.149.062-.146.063-.144.065-.142.066-.14.067-.139.068-.136.07-.134.07-.132.073-.13.073-.13.075-.126.077-.125.077-.123.08-.122.08-.12.081-.118.083-.116.084-.115.086-.113.087-.112.089-.11.09-.108.091-.107.093-.105.094-.104.096-.102.097-.101.099-.1.1-.097.101-.096.104-.095.104-.094.107-.092.107-.09.11-.09.11-.087.113-.086.114-.085.116-.084.118-.082.119-.08.12-.08.123-.078.124-.077.127-.075.127-.075.13-.072.132-.072.133-.07.136-.069.137-.067.14-.067.14-.065.144-.063.145-.063.148-.06.15-.06.151-.06.154-.057.157-.056.159-.055.161-.053.164-.053.166-.05.17-.05.17-.05.175-.047.177-.046.18-.045.184-.044.186-.042.19-.042.193-.04.196-.039.2-.037.204-.037.208-.035.212-.034.216-.033.221-.032.226-.03.23-.03.236-.027.241-.027.248-.026.254-.024.26-.024.268-.022.276-.02.284-.02.294-.019.303-.017.315-.017.328-.015.341-.013.358-.013.375-.012.397-.01.422-.009.453-.008.491-.007.54-.005.61-.005.714-.003.902-.002h4.672l1.07.001.787.003.653.004.57.005.514.006.47.007.436.009.408.01.385.01.366.012.349.014.334.014.32.016.31.017.298.018.289.019.28.02.271.022.264.022.257.024.25.025.245.027.238.027.233.029.228.03.223.03.218.033.214.034.21.034.206.036.202.037.198.039.195.04.19.04.189.042.184.043.182.044.179.046.175.047.173.048.17.05.168.05.165.051.163.053.16.055.157.055.156.057.153.058.15.06.149.06.146.062.145.063.142.064.14.066.138.067.136.068.135.07.132.07.13.073.13.073.127.075.125.076.123.077.122.08.12.08.118.08.117.084.115.084.113.086.112.087.11.088.108.09.107.091.106.093.103.094.103.096.1.097.1.098.098.1.096.102.095.103.094.104.092.106.09.108.09.11.088.11.086.113.085.114.084.115.082.118.08.119.08.12.079.123.077.124.075.126.074.128.073.13.072.13.07.134.069.135.068.137.066.14.065.14.064.144.062.145.062.147.06.15.058.152.058.154.056.156.055.158.054.162.052.163.051.166.05.169.05.171.047.175.046.177.045.18.044.183.042.186.042.189.04.193.04.196.037.2.036.203.036.208.034.211.033.216.032.22.03.226.03.23.028.235.027.241.025.247.025.254.023.26.023.267.02.275.02.284.02.292.017.303.016.314.015.327.014.34.013.356.011.374.01.395.01.42.008.45.007.488.005.536.005.603.003.703.002.881.001 1.374v1.329Z" fill="#fff" fill-opacity=".26"/><path d="m48.03 24.453-.001 2.353-.002.974-.003.748-.004.63-.005.555-.007.502-.008.461-.008.429-.01.402-.011.38-.013.362-.014.345-.014.331-.016.318-.017.306-.018.296-.02.287-.02.277-.022.27-.023.262-.025.256-.025.249-.027.242-.027.238-.03.231-.03.227-.03.222-.034.217-.033.213-.035.21-.036.204-.038.2-.038.198-.04.194-.041.19-.042.188-.044.183-.045.181-.045.178-.048.175-.048.173-.05.17-.05.166-.052.165-.054.161-.054.16-.056.157-.057.155-.058.152-.06.15-.06.148-.063.146-.063.144-.065.142-.066.14-.067.137-.069.136-.07.134-.07.132-.073.13-.074.129-.075.126-.077.125-.078.123-.079.121-.08.12-.082.117-.083.117-.085.114-.086.113-.087.112-.089.11-.09.107-.092.107-.093.105-.094.104-.096.102-.098.1-.098.1-.1.097-.103.096-.103.094-.105.093-.107.092-.108.09-.11.09-.11.087-.113.086-.114.085-.117.083-.117.082-.12.08-.12.08-.124.078-.124.076-.127.075-.128.074-.13.073-.132.071-.133.07-.136.069-.138.067-.14.066-.14.065-.145.063-.145.063-.148.06-.15.06-.152.059-.155.057-.157.056-.16.054-.16.054-.165.052-.167.05-.17.05-.171.05-.175.046-.178.046-.18.045-.184.044-.187.042-.19.041-.194.04-.197.039-.2.037-.205.036-.208.035-.213.034-.217.033-.221.032-.227.03-.231.029-.237.028-.242.026-.249.026-.255.024-.261.023-.27.022-.276.02-.286.02-.295.019-.306.017-.316.016-.33.015-.344.014-.36.012-.379.011-.4.01-.427.01-.458.007-.498.007-.55.005-.624.004-.736.003-.948.002H22.24l-1.004-.001-.76-.003-.638-.004-.56-.005-.505-.007-.464-.007-.431-.01-.405-.01-.382-.01-.363-.012-.346-.014-.332-.015-.319-.015-.307-.017-.296-.018-.288-.02-.278-.02-.27-.022-.263-.023-.256-.024-.25-.025-.243-.027-.237-.028-.232-.029-.228-.03-.222-.03-.218-.033-.213-.034-.209-.035-.205-.036-.201-.037-.198-.039-.194-.04-.19-.04-.188-.043-.184-.043-.181-.044-.179-.046-.175-.047-.173-.049-.17-.05-.166-.05-.165-.052-.162-.053-.16-.054-.157-.056-.155-.057-.152-.058-.15-.06-.15-.06-.145-.063-.144-.063-.142-.065-.14-.065-.138-.068-.136-.068-.134-.07-.132-.07-.13-.073-.129-.074-.127-.075-.124-.076-.124-.078-.12-.079-.12-.08-.119-.082-.116-.083-.115-.084-.113-.086-.111-.088-.11-.088-.108-.09-.107-.092-.105-.093-.104-.094-.102-.096-.1-.097-.1-.1-.097-.1-.096-.101-.095-.103-.093-.105-.092-.106-.09-.108-.09-.11-.087-.11-.086-.114-.085-.114-.084-.116-.082-.117-.08-.12-.08-.12-.078-.123-.077-.125-.075-.126-.074-.128-.073-.13-.07-.132-.07-.133-.07-.136-.067-.137-.066-.14-.065-.141-.064-.144-.062-.145-.061-.148-.06-.15-.058-.152-.058-.154-.056-.157-.055-.159-.053-.161-.052-.164-.051-.167-.05-.17-.049-.17-.047-.176-.046-.177-.045-.18-.044-.184-.042-.187-.041-.19-.04-.193-.039-.197-.038-.2-.036-.204-.035-.208-.034-.212-.033-.217-.031-.221-.03-.226-.03-.231-.028-.236-.027-.242-.025-.248-.025-.255-.023-.26-.022-.27-.02-.276-.02-.284-.019-.295-.017-.304-.016-.316-.015-.329-.014-.343-.012-.358-.012-.378-.01-.398-.009-.425-.008-.455-.007-.495-.005-.545-.004-.616-.003-.725-.002-.924-.001-1.594v-3.097l.002-1.035.003-.774.004-.645.005-.565.006-.51.007-.466.009-.434.01-.406.01-.384.013-.364.013-.348.015-.332.016-.32.017-.308.018-.298.019-.288.02-.279.022-.27.023-.264.024-.257.025-.25.026-.243.028-.238.029-.233.03-.227.031-.223.032-.218.034-.214.035-.21.036-.204.037-.202.038-.198.04-.194.04-.191.043-.188.043-.184.044-.182.046-.178.047-.176.048-.172.05-.17.05-.168.052-.165.053-.162.055-.16.055-.157.057-.155.058-.153.06-.15.06-.149.062-.146.063-.144.065-.142.066-.14.067-.139.068-.136.07-.134.07-.132.073-.13.073-.13.075-.126.077-.125.077-.123.08-.122.08-.12.081-.118.083-.116.084-.115.086-.113.087-.112.089-.11.09-.108.091-.107.093-.105.094-.104.096-.102.097-.101.099-.1.1-.097.101-.096.104-.095.104-.094.107-.092.107-.09.11-.09.11-.087.113-.086.114-.085.116-.084.118-.082.119-.08.12-.08.123-.078.124-.077.127-.075.127-.075.13-.072.132-.072.133-.07.136-.069.137-.067.14-.067.14-.065.144-.063.145-.063.148-.06.15-.06.151-.06.154-.057.157-.056.159-.055.161-.053.164-.053.166-.05.17-.05.17-.05.175-.047.177-.046.18-.045.184-.044.186-.042.19-.042.193-.04.196-.039.2-.037.204-.037.208-.035.212-.034.216-.033.221-.032.226-.03.23-.03.236-.027.241-.027.248-.026.254-.024.26-.024.268-.022.276-.02.284-.02.294-.019.303-.017.315-.017.328-.015.341-.013.358-.013.375-.012.397-.01.422-.009.453-.008.491-.007.54-.005.61-.005.714-.003.902-.002h4.672l1.07.001.787.003.653.004.57.005.514.006.47.007.436.009.408.01.385.01.366.012.349.014.334.014.32.016.31.017.298.018.289.019.28.02.271.022.264.022.257.024.25.025.245.027.238.027.233.029.228.03.223.03.218.033.214.034.21.034.206.036.202.037.198.039.195.04.19.04.189.042.184.043.182.044.179.046.175.047.173.048.17.05.168.05.165.051.163.053.16.055.157.055.156.057.153.058.15.06.149.06.146.062.145.063.142.064.14.066.138.067.136.068.135.07.132.07.13.073.13.073.127.075.125.076.123.077.122.08.12.08.118.08.117.084.115.084.113.086.112.087.11.088.108.09.107.091.106.093.103.094.103.096.1.097.1.098.098.1.096.102.095.103.094.104.092.106.09.108.09.11.088.11.086.113.085.114.084.115.082.118.08.119.08.12.079.123.077.124.075.126.074.128.073.13.072.13.07.134.069.135.068.137.066.14.065.14.064.144.062.145.062.147.06.15.058.152.058.154.056.156.055.158.054.162.052.163.051.166.05.169.05.171.047.175.046.177.045.18.044.183.042.186.042.189.04.193.04.196.037.2.036.203.036.208.034.211.033.216.032.22.03.226.03.23.028.235.027.241.025.247.025.254.023.26.023.267.02.275.02.284.02.292.017.303.016.314.015.327.014.34.013.356.011.374.01.395.01.42.008.45.007.488.005.536.005.603.003.703.002.881.001 1.374v1.329Z" stroke="#000" stroke-opacity=".04" stroke-width=".49"/></g><path d="m26.46 18.57 5.884 5.882m0 0-5.883 5.883m5.883-5.883H17.636" stroke="#fff" stroke-width="1.961" stroke-linecap="round" stroke-linejoin="round"/></g><defs><clipPath id="a"><rect x=".965" y=".92" width="47.065" height="47.065" rx="23.532" fill="#fff"/></clipPath><filter id="b" x="-3.203" y="-3.247" width="55.401" height="55.399" filterUnits="userSpaceOnUse" color-interpolation-filters="sRGB"><feFlood flood-opacity="0" result="BackgroundImageFix"/><feGaussianBlur in="BackgroundImageFix" stdDeviation="1.961"/><feComposite in2="SourceAlpha" operator="in" result="effect1_backgroundBlur_4_273"/><feBlend in="SourceGraphic" in2="effect1_backgroundBlur_4_273" result="shape"/></filter></defs></svg>