<svg width="50" height="50" fill="none" xmlns="http://www.w3.org/2000/svg"><g clip-path="url(#a)"><circle cx="25" cy="25" r="25" fill="#fff"/><path d="M50 25a25 25 0 1 1-50 0 25 25 0 0 1 50 0Zm-24.103-6.544c-2.433 1.013-7.294 3.107-14.581 6.282-1.182.468-1.801.929-1.86 1.38-.093.76.86 1.06 2.157 1.47l.546.171c1.275.416 2.994.9 3.885.92.812.02 1.716-.313 2.712-1 6.81-4.597 10.325-6.92 10.544-6.97.156-.037.375-.08.519.05.143.132.131.375.115.441-.093.403-3.834 3.878-5.768 5.678-.604.563-1.032.96-1.12 1.05-.192.197-.388.39-.587.581-1.187 1.144-2.075 2 .047 3.4 1.022.675 1.84 1.229 2.657 1.785.887.606 1.774 1.21 2.924 1.965.292.192.573.387.844.585 1.035.737 1.969 1.4 3.116 1.294.669-.063 1.36-.688 1.71-2.563.827-4.428 2.456-14.019 2.83-17.972.024-.329.01-.659-.04-.984a1.062 1.062 0 0 0-.356-.678 1.656 1.656 0 0 0-.97-.291c-.937.016-2.383.519-9.324 3.406Z" fill="#323232"/></g><defs><clipPath id="a"><path fill="#fff" d="M0 0h50v50H0z"/></clipPath></defs></svg>