<svg width="34" height="34" viewBox="0 0 34 34" fill="none" xmlns="http://www.w3.org/2000/svg">
<path d="M32.1444 0.0100394L32.3218 0L32.5393 0.0133857L32.6899 0.0401574L32.8957 0.0987205L33.0747 0.175689L33.242 0.271063L33.3926 0.383169L33.5298 0.508661L33.6168 0.607382L33.754 0.801476L33.841 0.962106C33.9191 1.12943 33.9693 1.30568 33.9916 1.49085L34 1.66821C34 1.79426 33.9866 1.91696 33.9598 2.03632L33.9013 2.24213L22.9718 32.4891C22.7646 32.9401 22.4323 33.3222 22.0144 33.59C21.5965 33.8579 21.1105 34.0002 20.6142 34C20.1672 34.0009 19.7276 33.8863 19.338 33.6673C18.9484 33.4483 18.622 33.1324 18.3905 32.7501L18.2817 32.5376L12.673 21.3236L1.5126 15.7417C1.09965 15.5529 0.743521 15.2589 0.479836 14.8892C0.216152 14.5195 0.0541521 14.0871 0.0100394 13.6351L0 13.3858C0 12.4488 0.503642 11.5921 1.40718 11.0935L1.64144 10.9764L31.788 0.0903541L31.9654 0.0401574L32.1444 0.0100394Z" fill="#FAB355"/>
</svg>
