<svg width="28" height="22" viewBox="0 0 28 22" fill="none" xmlns="http://www.w3.org/2000/svg">
<path d="M28 20.1667C28 21.1792 27.1792 22 26.1667 22H1.83333C0.82081 22 0 21.1792 0 20.1667C0 19.1541 0.820811 18.3333 1.83333 18.3333H26.1667C27.1792 18.3333 28 19.1541 28 20.1667ZM28 11C28 12.0125 27.1792 12.8333 26.1667 12.8333H1.83333C0.82081 12.8333 0 12.0125 0 11C0 9.98748 0.820811 9.16667 1.83333 9.16667H26.1667C27.1792 9.16667 28 9.98748 28 11ZM28 1.83333C28 2.84586 27.1792 3.66667 26.1667 3.66667H1.83333C0.82081 3.66667 0 2.84586 0 1.83333C0 0.820812 0.820811 0 1.83333 0H26.1667C27.1792 0 28 0.820812 28 1.83333Z" fill="#0C0C0C"/>
</svg>
