<svg width="30" height="28" viewBox="0 0 30 28" fill="none" xmlns="http://www.w3.org/2000/svg">
<path d="M6.14062 6.76392H25.1827C25.5685 6.76393 25.9501 6.84481 26.3027 7.00133C26.6554 7.15786 26.9714 7.38656 27.2303 7.6727C27.4892 7.95883 27.6853 8.29605 27.8059 8.66262C27.9265 9.02918 27.969 9.41696 27.9306 9.80095L27.1021 18.0875C27.0339 18.7691 26.715 19.4011 26.2072 19.8607C25.6994 20.3203 25.039 20.5749 24.3542 20.5749H11.167C10.5283 20.5752 9.90923 20.354 9.41526 19.9491C8.92128 19.5441 8.58289 18.9805 8.45771 18.3541L6.14062 6.76392Z" stroke="black" stroke-width="2.47107" stroke-linejoin="round"/>
<path d="M6.14258 6.7639L5.02408 2.28499C4.94928 1.98634 4.77684 1.72124 4.53416 1.53182C4.29148 1.3424 3.99248 1.23951 3.68465 1.2395H2M10.2852 26.0993H13.0469M21.332 26.0993H24.0937" stroke="black" stroke-width="2.47107" stroke-linecap="round" stroke-linejoin="round"/>
</svg>
