<svg width="50" height="50" viewBox="0 0 50 50" fill="none" xmlns="http://www.w3.org/2000/svg">
<path d="M25.3242 0.943848C11.8002 0.943848 0.824219 11.9218 0.824219 25.4481C0.824219 38.9744 11.8002 49.9523 25.3242 49.9523C38.8482 49.9523 49.8242 38.9744 49.8242 25.4481C49.8242 11.9218 38.8482 0.943848 25.3242 0.943848ZM36.6922 17.6067C36.3247 21.4784 34.7322 30.888 33.9237 35.2253C33.5807 37.0631 32.8947 37.6757 32.2577 37.7492C30.8367 37.8717 29.7587 36.8181 28.3867 35.9114C26.2307 34.4902 25.0057 33.608 22.9232 32.2358C20.4977 30.643 22.0657 29.7608 23.4622 28.3396C23.8297 27.972 30.1017 22.2625 30.2242 21.748C30.2412 21.67 30.239 21.5891 30.2176 21.5122C30.1963 21.4354 30.1565 21.3649 30.1017 21.3069C29.9547 21.1844 29.7587 21.2334 29.5872 21.2579C29.3667 21.3069 25.9367 23.5858 19.2482 28.0946C18.2682 28.7562 17.3862 29.0992 16.6022 29.0747C15.7202 29.0502 14.0542 28.5846 12.8047 28.1681C11.2612 27.678 10.0607 27.4084 10.1587 26.5508C10.2077 26.1097 10.8202 25.6686 11.9717 25.2031C19.1257 22.091 23.8787 20.0327 26.2552 19.0525C33.0662 16.21 34.4627 15.7199 35.3937 15.7199C35.5897 15.7199 36.0552 15.7689 36.3492 16.014C36.5942 16.21 36.6677 16.4795 36.6922 16.6756C36.6677 16.8226 36.7167 17.2637 36.6922 17.6067Z" fill="black"/>
</svg>
