<svg width="49" height="50" viewBox="0 0 49 50" fill="none" xmlns="http://www.w3.org/2000/svg">
<path fill-rule="evenodd" clip-rule="evenodd" d="M24.5 0.943848C10.9687 0.943848 0 11.9144 0 25.4481C0 30.0794 1.28625 34.4166 3.5231 38.1119L1.3377 45.5416C1.21222 45.9681 1.20397 46.4206 1.3138 46.8515C1.42363 47.2824 1.6475 47.6757 1.96186 47.9901C2.27622 48.3045 2.66947 48.5284 3.10027 48.6383C3.53107 48.7481 3.9835 48.7399 4.41 48.6144L11.8384 46.4286C15.6572 48.7396 20.0366 49.9584 24.5 49.9523C38.0313 49.9523 49 38.9818 49 25.4481C49 11.9144 38.0313 0.943848 24.5 0.943848ZM18.9581 30.9934C23.9144 35.9481 28.6454 36.6024 30.3163 36.6637C32.8569 36.7568 35.3314 34.8161 36.2943 32.5641C36.4159 32.284 36.46 31.9763 36.4221 31.6733C36.3841 31.3703 36.2655 31.083 36.0787 30.8415C34.7361 29.1262 32.9207 27.8936 31.1469 26.6684C30.7765 26.4123 30.3214 26.3095 29.877 26.3817C29.4325 26.4539 29.0333 26.6954 28.763 27.0556L27.293 29.2977C27.2157 29.4182 27.0953 29.5047 26.9564 29.5393C26.8174 29.5739 26.6705 29.5541 26.5457 29.4839C25.5486 28.913 24.0958 27.9426 23.0521 26.8987C22.0084 25.8549 21.097 24.4679 20.5849 23.5343C20.5214 23.4157 20.5031 23.2781 20.5332 23.147C20.5634 23.0159 20.6401 22.9001 20.7491 22.8212L23.0128 21.1402C23.3359 20.8593 23.5444 20.4693 23.5986 20.0446C23.6528 19.6198 23.549 19.19 23.3068 18.8368C22.2092 17.2294 20.9304 15.1857 19.0757 13.8306C18.8363 13.6571 18.556 13.549 18.2621 13.5167C17.9683 13.4845 17.6712 13.5294 17.3999 13.6468C15.1459 14.6123 13.1957 17.0872 13.2888 19.6332C13.35 21.3044 14.0042 26.0362 18.9581 30.9934Z" fill="black"/>
</svg>
