<svg width="200" height="49" viewBox="0 0 200 49" fill="none" xmlns="http://www.w3.org/2000/svg">
<path d="M4.928 47.1263H18.176C20.224 47.1263 22.0587 46.6783 23.68 45.7823C25.344 44.8436 26.752 43.6276 27.904 42.1343C29.056 40.641 29.9307 38.977 30.528 37.1423C31.168 35.265 31.488 33.3876 31.488 31.5103C31.488 29.633 31.168 27.777 30.528 25.9423C29.9307 24.065 29.056 22.401 27.904 20.9503C26.752 19.457 25.344 18.2623 23.68 17.3663C22.0587 16.4276 20.224 15.9583 18.176 15.9583C16.384 15.9583 14.5707 16.321 12.736 17.0463L12.48 16.5343C13.76 15.937 14.72 15.0623 15.36 13.9103C16 12.7156 16.32 11.4356 16.32 10.0703C16.32 9.25964 16.192 8.44897 15.936 7.63831C15.68 6.82764 15.296 6.1023 14.784 5.4623C14.272 4.77964 13.6533 4.2463 12.928 3.8623C12.2453 3.43564 11.456 3.22231 10.56 3.22231H4.928V47.1263ZM1.536 47.7023V2.64631H10.56C11.6693 2.64631 12.7573 2.83831 13.824 3.22231C14.9333 3.6063 15.9147 4.13964 16.768 4.8223C17.6213 5.50497 18.304 6.33697 18.816 7.3183C19.3707 8.29964 19.648 9.38764 19.648 10.5823C19.648 12.3743 19.0293 13.953 17.792 15.3183C20.1387 15.3183 22.336 15.7236 24.384 16.5343C26.4747 17.345 28.288 18.4756 29.824 19.9263C31.36 21.377 32.576 23.105 33.472 25.1103C34.368 27.073 34.816 29.2063 34.816 31.5103C34.816 33.7716 34.368 35.905 33.472 37.9103C32.576 39.873 31.36 41.5796 29.824 43.0303C28.3307 44.481 26.56 45.633 24.512 46.4863C22.5067 47.297 20.3947 47.7023 18.176 47.7023H1.536ZM42.578 47.6383H39.186V27.3503L32.018 2.32631H35.666L42.386 25.8783L48.594 2.32631H49.234L42.578 27.5423V47.6383ZM82.6865 18.7743C82.6865 16.3423 82.3025 14.0596 81.5345 11.9263C80.7665 9.79297 79.6998 7.91564 78.3345 6.2943C77.0118 4.71564 75.4545 3.45697 73.6625 2.5183C71.8705 1.57964 69.9505 1.1103 67.9025 1.1103C65.8118 1.1103 63.8705 1.57964 62.0785 2.5183C60.3292 3.45697 58.7932 4.71564 57.4705 6.2943C56.1052 7.91564 55.0385 9.79297 54.2705 11.9263C53.5025 14.0596 53.1185 16.3423 53.1185 18.7743V47.6383H49.5985V18.7743C49.5985 16.257 50.0678 13.889 51.0065 11.6703C51.9878 9.45164 53.3105 7.53164 54.9745 5.91031C56.6385 4.2463 58.5798 2.94497 60.7985 2.0063C63.0172 1.02497 65.3852 0.534302 67.9025 0.534302C70.4198 0.534302 72.7878 1.02497 75.0065 2.0063C77.2252 2.94497 79.1665 4.2463 80.8305 5.91031C82.4945 7.53164 83.7958 9.45164 84.7345 11.6703C85.7158 13.889 86.2065 16.257 86.2065 18.7743C86.2065 21.2916 85.7158 23.6596 84.7345 25.8783C83.7958 28.097 82.4945 30.0383 80.8305 31.7023C79.1665 33.3663 77.2252 34.689 75.0065 35.6703C72.7878 36.609 70.4198 37.0783 67.9025 37.0783C66.1958 37.0783 64.4678 36.8436 62.7185 36.3743L81.0865 47.6383H79.9345L58.7505 34.6463L59.0705 34.1343C61.8438 35.713 64.7878 36.5023 67.9025 36.5023C69.9505 36.5023 71.8705 36.033 73.6625 35.0943C75.4545 34.1556 77.0118 32.897 78.3345 31.3183C79.6998 29.697 80.7665 27.8196 81.5345 25.6863C82.3025 23.553 82.6865 21.249 82.6865 18.7743ZM102.79 19.4783V20.1183H92.678V47.1263H104.006V47.7023H89.286V2.64631H101.702V3.22231H92.678V19.4783H102.79ZM110.491 47.1263H122.651C125.595 47.1263 128.283 46.5076 130.715 45.2703C133.189 44.033 135.323 42.3903 137.115 40.3423C138.907 38.2943 140.293 35.969 141.275 33.3663C142.256 30.721 142.747 27.9903 142.747 25.1743C142.747 22.3583 142.256 19.649 141.275 17.0463C140.293 14.401 138.907 12.0543 137.115 10.0063C135.323 7.9583 133.189 6.31564 130.715 5.0783C128.283 3.84097 125.595 3.22231 122.651 3.22231H110.491V47.1263ZM122.651 2.64631C125.765 2.64631 128.773 3.2223 131.675 4.3743C134.576 5.48364 137.136 7.04097 139.354 9.0463C141.616 11.009 143.408 13.377 144.731 16.1503C146.053 18.9236 146.715 21.9316 146.715 25.1743C146.715 28.417 146.053 31.425 144.731 34.1983C143.408 36.929 141.616 39.297 139.354 41.3023C137.136 43.3076 134.576 44.8863 131.675 46.0383C128.773 47.1476 125.765 47.7023 122.651 47.7023H107.099V2.64631H122.651ZM173.978 1.1103C170.863 1.1103 168.069 1.8143 165.594 3.22231C163.119 4.58764 161.007 6.40097 159.258 8.6623C157.509 10.881 156.165 13.3983 155.226 16.2143C154.287 19.0303 153.818 21.8676 153.818 24.7263C153.818 27.5423 154.287 30.3583 155.226 33.1743C156.165 35.9903 157.509 38.529 159.258 40.7903C161.007 43.009 163.119 44.8223 165.594 46.2303C168.069 47.5956 170.863 48.2783 173.978 48.2783C177.093 48.2783 179.887 47.5956 182.362 46.2303C184.879 44.8223 187.013 43.009 188.762 40.7903C190.511 38.529 191.855 35.9903 192.794 33.1743C193.733 30.3583 194.202 27.5423 194.202 24.7263C194.202 21.8676 193.733 19.0303 192.794 16.2143C191.855 13.3983 190.511 10.881 188.762 8.6623C187.013 6.40097 184.879 4.58764 182.362 3.22231C179.887 1.8143 177.093 1.1103 173.978 1.1103ZM173.978 0.534302C177.306 0.534302 180.442 1.1743 183.386 2.4543C186.33 3.69164 188.89 5.41964 191.066 7.63831C193.285 9.81431 195.013 12.3743 196.25 15.3183C197.53 18.2623 198.17 21.3983 198.17 24.7263C198.17 28.0543 197.53 31.1903 196.25 34.1343C195.013 37.0783 193.285 39.6383 191.066 41.8143C188.89 43.9903 186.33 45.7183 183.386 46.9983C180.442 48.2783 177.306 48.9183 173.978 48.9183C170.65 48.9183 167.514 48.2783 164.57 46.9983C161.626 45.7183 159.066 43.9903 156.89 41.8143C154.714 39.6383 152.986 37.0783 151.706 34.1343C150.426 31.1903 149.786 28.0543 149.786 24.7263C149.786 21.3983 150.426 18.2623 151.706 15.3183C152.986 12.3743 154.714 9.81431 156.89 7.63831C159.066 5.41964 161.626 3.69164 164.57 2.4543C167.514 1.1743 170.65 0.534302 173.978 0.534302Z" fill="#000101"/>
</svg>
