<svg width="209" height="42" viewBox="0 0 209 42" fill="none" xmlns="http://www.w3.org/2000/svg">
<path d="M185.493 16.3081C183.873 17.6041 182.613 19.1881 181.713 21.0601C180.849 22.8961 180.417 24.8581 180.417 26.9461C180.417 28.7461 180.741 30.4561 181.389 32.0761C182.073 33.6601 182.991 35.0641 184.143 36.2881C185.295 37.5121 186.645 38.4841 188.193 39.2041C189.741 39.9241 191.397 40.2841 193.161 40.2841C194.853 40.2841 196.437 39.9601 197.913 39.3121C199.389 38.6641 200.667 37.8001 201.747 36.7201C202.863 35.6041 203.727 34.3081 204.339 32.8321C204.987 31.3201 205.311 29.7181 205.311 28.0261C205.311 24.7141 204.393 22.0861 202.557 20.1421C200.649 18.1261 197.643 16.6321 193.539 15.6601C192.567 15.4081 191.631 15.0661 190.731 14.6341C189.867 14.2021 189.111 13.6621 188.463 13.0141C187.815 12.3661 187.293 11.6281 186.897 10.8001C186.501 9.93607 186.303 8.96407 186.303 7.88407C186.303 6.84007 186.501 5.85007 186.897 4.91407C187.293 3.97807 187.833 3.16807 188.517 2.48407C189.237 1.76407 190.065 1.20607 191.001 0.810066C191.937 0.414065 192.927 0.216064 193.971 0.216064C195.015 0.216064 196.005 0.414065 196.941 0.810066C197.877 1.20607 198.687 1.76407 199.371 2.48407C200.091 3.16807 200.649 3.97807 201.045 4.91407C201.441 5.81407 201.639 6.80407 201.639 7.88407C201.639 8.46007 201.549 9.14407 201.369 9.93606L200.829 9.82807C200.937 9.50407 201.009 9.18007 201.045 8.85607C201.081 8.53207 201.099 8.20807 201.099 7.88407C201.099 6.94807 200.919 6.06607 200.559 5.23807C200.235 4.37407 199.767 3.61806 199.155 2.97006C198.543 2.32207 197.823 1.81807 196.995 1.45806C196.167 1.06207 195.285 0.864066 194.349 0.864066C193.521 0.864066 192.747 1.02607 192.027 1.35007C191.307 1.67407 190.677 2.10607 190.137 2.64607C189.633 3.18607 189.219 3.81607 188.895 4.53607C188.607 5.25607 188.463 6.01207 188.463 6.80407C188.463 7.74007 188.607 8.53207 188.895 9.18007C189.219 9.79207 189.651 10.3141 190.191 10.7461C190.731 11.1781 191.343 11.5381 192.027 11.8261C192.747 12.0781 193.485 12.2941 194.241 12.4741C196.401 12.9781 198.327 13.6441 200.019 14.4721C201.747 15.3001 203.205 16.2901 204.393 17.4421C205.617 18.6301 206.535 19.9981 207.147 21.5461C207.795 23.0941 208.119 24.8941 208.119 26.9461C208.119 28.8901 207.741 30.7261 206.985 32.4541C206.265 34.1821 205.257 35.6761 203.961 36.9361C202.701 38.1961 201.207 39.2041 199.479 39.9601C197.787 40.6801 195.951 41.0401 193.971 41.0401C192.027 41.0401 190.191 40.6801 188.463 39.9601C186.771 39.2041 185.277 38.1961 183.981 36.9361C182.721 35.6401 181.713 34.1461 180.957 32.4541C180.237 30.7261 179.877 28.8901 179.877 26.9461C179.877 24.7861 180.327 22.7521 181.227 20.8441C182.127 18.9361 183.441 17.2981 185.169 15.9301L185.493 16.3081Z" fill="#000101"/>
<path d="M177.299 34.29C177.299 35.226 177.119 36.108 176.759 36.936C176.399 37.764 175.895 38.484 175.247 39.096C174.635 39.708 173.897 40.176 173.033 40.5C172.205 40.86 171.323 41.04 170.387 41.04C169.451 41.04 168.551 40.86 167.687 40.5C166.859 40.14 166.139 39.654 165.527 39.042C164.915 38.43 164.429 37.71 164.069 36.882C163.709 36.018 163.529 35.118 163.529 34.182V1.72803H166.391V34.29C166.391 35.73 166.895 36.954 167.903 37.962C168.911 38.97 170.135 39.474 171.575 39.474C173.015 39.474 174.239 38.97 175.247 37.962C176.255 36.954 176.759 35.73 176.759 34.29V1.72803H177.299V34.29Z" fill="#000101"/>
<path d="M157.961 15.6061C157.961 13.5541 157.637 11.6281 156.989 9.82807C156.341 8.02807 155.441 6.44407 154.289 5.07607C153.173 3.74407 151.859 2.68207 150.347 1.89007C148.835 1.09806 147.215 0.702065 145.487 0.702065C143.723 0.702065 142.085 1.09806 140.573 1.89007C139.097 2.68207 137.801 3.74407 136.685 5.07607C135.533 6.44407 134.633 8.02807 133.985 9.82807C133.337 11.6281 133.013 13.5541 133.013 15.6061V39.9601H130.043V15.6061C130.043 13.4821 130.439 11.4841 131.231 9.61207C132.059 7.74007 133.175 6.12007 134.579 4.75207C135.983 3.34807 137.621 2.25007 139.493 1.45806C141.365 0.630064 143.363 0.216064 145.487 0.216064C147.611 0.216064 149.609 0.630064 151.481 1.45806C153.353 2.25007 154.991 3.34807 156.395 4.75207C157.799 6.12007 158.897 7.74007 159.689 9.61207C160.517 11.4841 160.931 13.4821 160.931 15.6061C160.931 17.7301 160.517 19.7281 159.689 21.6001C158.897 23.4721 157.799 25.1101 156.395 26.5141C154.991 27.9181 153.353 29.0341 151.481 29.8621C149.609 30.6541 147.611 31.0501 145.487 31.0501C144.047 31.0501 142.589 30.8521 141.113 30.4561L156.611 39.9601H155.639L137.765 28.9981L138.035 28.5661C140.375 29.8981 142.859 30.5641 145.487 30.5641C147.215 30.5641 148.835 30.1681 150.347 29.3761C151.859 28.5841 153.173 27.5221 154.289 26.1901C155.441 24.8221 156.341 23.2381 156.989 21.4381C157.637 19.6381 157.961 17.6941 157.961 15.6061Z" fill="#000101"/>
<path d="M127.473 1.72803V39.96H124.611V1.72803H127.473Z" fill="#000101"/>
<path d="M122.171 1.72803H122.657L115.853 40.392H115.205L108.617 1.72803H111.587L116.717 32.616L122.171 1.72803Z" fill="#000101"/>
<path d="M101.707 39.96H98.8449V22.842L92.7969 1.72803H95.8749L101.545 21.6L106.783 1.72803H107.323L101.707 23.004V39.96Z" fill="#000101"/>
<path d="M85.5166 39.96H82.6546V2.26803H77.3086V1.72803H90.8626V2.26803H85.5166V39.96Z" fill="#000101"/>
<path d="M74.7309 34.29C74.7309 35.226 74.5509 36.108 74.1909 36.936C73.8309 37.764 73.3269 38.484 72.6789 39.096C72.0669 39.708 71.3289 40.176 70.4649 40.5C69.6369 40.86 68.7549 41.04 67.8189 41.04C66.8829 41.04 65.9829 40.86 65.1189 40.5C64.2909 40.14 63.5709 39.654 62.9589 39.042C62.3469 38.43 61.8609 37.71 61.5009 36.882C61.1409 36.018 60.9609 35.118 60.9609 34.182V1.72803H63.8229V34.29C63.8229 35.73 64.3269 36.954 65.3349 37.962C66.3429 38.97 67.5669 39.474 69.0069 39.474C70.4469 39.474 71.6709 38.97 72.6789 37.962C73.6869 36.954 74.1909 35.73 74.1909 34.29V1.72803H74.7309V34.29Z" fill="#000101"/>
<path d="M53.3887 23.004L51.2287 9.018L48.9607 23.004H53.3887ZM58.8967 40.014H56.0347L53.4967 23.544H48.9067L46.2607 40.014H45.7207L52.1467 0H52.7407L58.8967 40.014Z" fill="#000101"/>
<path d="M42.0854 16.2V16.74H33.5534V39.528H43.1114V40.014H30.6914V1.99805H41.1674V2.48405H33.5534V16.2H42.0854Z" fill="#000101"/>
<path d="M2.862 39.528H14.04C15.768 39.528 17.316 39.15 18.684 38.394C20.088 37.602 21.276 36.576 22.248 35.316C23.22 34.056 23.958 32.6521 24.462 31.104C25.002 29.5201 25.272 27.936 25.272 26.352C25.272 24.768 25.002 23.202 24.462 21.654C23.958 20.07 23.22 18.666 22.248 17.442C21.276 16.182 20.088 15.174 18.684 14.418C17.316 13.626 15.768 13.23 14.04 13.23C12.528 13.23 10.998 13.536 9.45 14.148L9.234 13.716C10.314 13.212 11.124 12.474 11.664 11.502C12.204 10.494 12.474 9.41405 12.474 8.26205C12.474 7.57805 12.366 6.89405 12.15 6.21005C11.934 5.52605 11.61 4.91404 11.178 4.37405C10.746 3.79805 10.224 3.34805 9.612 3.02405C9.036 2.66405 8.37 2.48405 7.614 2.48405H2.862V39.528ZM0 40.014V1.99805H7.614C8.55 1.99805 9.468 2.16005 10.368 2.48405C11.304 2.80805 12.132 3.25805 12.852 3.83405C13.572 4.41005 14.148 5.11204 14.58 5.94004C15.048 6.76804 15.282 7.68605 15.282 8.69405C15.282 10.206 14.76 11.538 13.716 12.69C15.696 12.69 17.55 13.032 19.278 13.716C21.042 14.4 22.572 15.354 23.868 16.578C25.164 17.802 26.19 19.26 26.946 20.952C27.702 22.608 28.08 24.408 28.08 26.352C28.08 28.26 27.702 30.06 26.946 31.752C26.19 33.408 25.164 34.848 23.868 36.072C22.608 37.296 21.114 38.268 19.386 38.988C17.694 39.6721 15.912 40.014 14.04 40.014H0Z" fill="#000101"/>
</svg>
