<svg width="45" height="45" viewBox="0 0 45 45" fill="none" xmlns="http://www.w3.org/2000/svg">
<path d="M3.75 23.4375C3.75 23.1889 3.84877 22.9504 4.02459 22.7746C4.2004 22.5988 4.43886 22.5 4.6875 22.5H14.0625C14.3111 22.5 14.5496 22.5988 14.7254 22.7746C14.9012 22.9504 15 23.1889 15 23.4375V33.75C15 35.2419 14.4074 36.6726 13.3525 37.7275C12.2976 38.7824 10.8668 39.375 9.375 39.375C7.88316 39.375 6.45242 38.7824 5.39752 37.7275C4.34263 36.6726 3.75 35.2419 3.75 33.75V23.4375ZM5.625 19.6875H13.125V11.25C13.1251 10.9304 13.0436 10.616 12.888 10.3368C12.7325 10.0575 12.5082 9.82266 12.2363 9.65452C11.9645 9.48638 11.6541 9.39053 11.3348 9.37607C11.0155 9.3616 10.6978 9.42901 10.4119 9.57189L6.66188 11.4469C6.35019 11.6026 6.08807 11.8422 5.90492 12.1386C5.72177 12.435 5.62484 12.7766 5.625 13.125V19.6875ZM20.625 19.6875C20.625 16.9525 21.7115 14.3295 23.6455 12.3955C25.5794 10.4615 28.2025 9.37502 30.9375 9.37502C33.6725 9.37502 36.2956 10.4615 38.2295 12.3955C40.1635 14.3295 41.25 16.9525 41.25 19.6875C41.25 22.4226 40.1635 25.0456 38.2295 26.9796C36.2956 28.9135 33.6725 30 30.9375 30C28.2025 30 25.5794 28.9135 23.6455 26.9796C21.7115 25.0456 20.625 22.4226 20.625 19.6875ZM29.5312 33.2063C30.4661 33.3057 31.4089 33.3057 32.3438 33.2063V36.5625H36.5625C36.9355 36.5625 37.2931 36.7107 37.5569 36.9744C37.8206 37.2381 37.9688 37.5958 37.9688 37.9688C37.9688 38.3417 37.8206 38.6994 37.5569 38.9631C37.2931 39.2269 36.9355 39.375 36.5625 39.375H25.3125C24.9395 39.375 24.5819 39.2269 24.3181 38.9631C24.0544 38.6994 23.9062 38.3417 23.9062 37.9688C23.9062 37.5958 24.0544 37.2381 24.3181 36.9744C24.5819 36.7107 24.9395 36.5625 25.3125 36.5625H29.5312V33.2063Z" fill="#CA9818"/>
</svg>
