<svg width="340" height="143" viewBox="0 0 340 143" fill="none" xmlns="http://www.w3.org/2000/svg">
<path d="M330 1.21452e-06C335.523 5.43757e-07 340 4.47716 340 10L340 133C340 138.523 335.523 143 330 143L29.5355 143C24.0127 143 19.5355 138.523 19.5355 133L19.5355 97.1759C19.5355 94.2126 18.2213 91.4019 15.9473 89.5019L4.1846 79.674C-0.599735 75.6765 -0.599734 68.3235 4.1846 64.3261L15.9473 54.4981C18.2213 52.5981 19.5356 49.7874 19.5356 46.8241L19.5356 10C19.5356 4.47719 24.0127 3.83772e-05 29.5356 3.77065e-05L330 1.21452e-06Z" fill="white"/>
</svg>
