<svg width="46" height="46" viewBox="0 0 46 46" fill="none" xmlns="http://www.w3.org/2000/svg">
<g clip-path="url(#clip0_129_575)">
<path fill-rule="evenodd" clip-rule="evenodd" d="M17.2499 3.83337C16.7416 3.83337 16.2541 4.03531 15.8946 4.39475C15.5352 4.7542 15.3333 5.24171 15.3333 5.75004C15.3333 6.25837 15.5352 6.74588 15.8946 7.10533C16.2541 7.46477 16.7416 7.66671 17.2499 7.66671H21.0833V11.5H18.0971C16.89 11.4996 15.7134 11.8791 14.7341 12.5846C13.7547 13.2902 13.0222 14.286 12.6403 15.4311L10.2713 22.542C9.81578 23.9091 9.58345 25.3406 9.58325 26.7816V36.4167C9.58325 37.9417 10.1891 39.4042 11.2674 40.4826C12.3457 41.5609 13.8083 42.1667 15.3333 42.1667H30.6666C32.1916 42.1667 33.6541 41.5609 34.7325 40.4826C35.8108 39.4042 36.4166 37.9417 36.4166 36.4167V26.7835C36.4162 25.3411 36.1832 23.9083 35.7266 22.54L33.3576 15.4311C32.9761 14.287 32.2444 13.2918 31.2662 12.5863C30.288 11.8808 29.1127 11.5008 27.9066 11.5H24.9166V7.66671C25.4249 7.66671 25.9124 7.46477 26.2719 7.10533C26.6313 6.74588 26.8333 6.25837 26.8333 5.75004C26.8333 5.24171 26.6313 4.7542 26.2719 4.39475C25.9124 4.03531 25.4249 3.83337 24.9166 3.83337H17.2499ZM19.1666 24.9167H13.6006C13.8593 23.6076 14.3768 22.3445 14.7985 21.0834H19.1666C19.6749 21.0834 20.1624 21.2853 20.5219 21.6448C20.8813 22.0042 21.0833 22.4917 21.0833 23C21.0833 23.5084 20.8813 23.9959 20.5219 24.3553C20.1624 24.7148 19.6749 24.9167 19.1666 24.9167Z" fill="#CA9818"/>
</g>
<defs>
<clipPath id="clip0_129_575">
<rect width="46" height="46" fill="white"/>
</clipPath>
</defs>
</svg>
