<svg width="46" height="46" viewBox="0 0 46 46" fill="none" xmlns="http://www.w3.org/2000/svg">
<path d="M33.5416 9.77498C35.4583 12.2666 36.4166 14.5666 36.4166 17.25C36.4166 20.5083 35.0749 23.575 31.8166 27.025C28.1749 30.8583 24.9166 35.075 24.9166 39.2916C24.9166 40.0583 25.1083 40.825 25.2999 41.7833C25.2999 41.975 25.2999 42.1667 25.1083 42.3583C24.9166 42.55 24.7249 42.3583 24.7249 42.1666C22.8083 39.675 21.8499 37.375 21.8499 34.6917C21.8499 31.4333 23.1916 28.3666 26.4499 24.9166C30.0916 21.0833 33.3499 16.8666 33.3499 12.65C33.3499 11.8833 33.1583 11.1166 32.9666 10.1583C32.9666 9.96665 32.9666 9.77498 33.1583 9.58331C33.3499 9.58331 33.3499 9.58331 33.5416 9.77498ZM18.5916 4.02498C19.9333 5.74998 20.5083 7.66665 20.5083 9.39165C20.5083 11.8833 19.3583 14.1833 17.0583 16.675C14.3749 19.55 11.8833 22.8083 11.8833 25.875C11.8833 26.45 12.0749 27.2166 12.2666 27.6C12.2666 27.7916 12.2666 27.7916 12.0749 27.9833C11.8833 28.175 11.6916 27.9833 11.6916 27.9833C10.1583 26.0666 9.58325 24.15 9.58325 22.425C9.58325 19.9333 10.7333 17.6333 13.0333 15.1416C15.7166 12.2666 18.2083 9.00831 18.2083 5.94165C18.2083 5.36665 18.0166 4.59998 17.8249 4.21665V3.83331C18.2083 3.83331 18.3999 3.83331 18.5916 4.02498ZM19.3583 18.975C22.9999 15.1416 26.2583 10.925 26.2583 6.70831C26.2583 5.94165 26.0666 5.17498 25.8749 4.21665C25.8749 4.02498 25.8749 3.83331 26.0666 3.64165C26.2583 3.44998 26.4499 3.64165 26.4499 3.83331C28.3666 6.32498 29.3249 8.62498 29.3249 11.3083C29.3249 14.5666 27.9833 17.6333 24.7249 21.0833C21.0833 24.9166 17.8249 29.1333 17.8249 33.35C17.8249 34.1166 18.0166 34.8833 18.2083 35.8417C18.2083 36.0333 18.2083 36.225 18.0166 36.4166C17.8249 36.6083 17.6333 36.4166 17.6333 36.225C15.7166 33.7333 14.7583 31.4333 14.7583 28.75C14.7583 25.4916 16.0999 22.425 19.3583 18.975Z" fill="#CA9818"/>
</svg>
