<svg width="46" height="46" viewBox="0 0 46 46" fill="none" xmlns="http://www.w3.org/2000/svg">
<path d="M4.6001 23.2875C6.6126 17.5566 12.3722 13.4166 19.1668 13.4166C26.751 13.4166 33.0492 18.5744 34.2816 25.3498C33.0262 24.8208 31.397 24.3819 29.7487 24.1078C26.4233 23.5558 23.8837 24.7058 21.7083 25.6986L21.6872 25.7082C19.4753 26.7183 17.6411 27.5559 15.228 27.2837C13.3056 27.0671 11.5748 26.4595 9.94951 25.7389C9.21351 25.413 8.51393 25.0719 7.82201 24.7326L7.5901 24.6195C6.84882 24.249 6.09513 23.9038 5.33035 23.5845L4.6001 23.2875Z" fill="#CA9818"/>
<path d="M3.93508 26.1204C3.86734 26.6717 3.83342 27.2267 3.8335 27.7821C3.8335 31.4525 5.30166 34.801 7.7205 37.3405C8.583 38.2471 9.01425 38.6995 10.8217 39.4757C12.631 40.25 13.8768 40.25 16.3723 40.25H21.9613C24.4568 40.25 25.7027 40.25 27.512 39.4757C29.3194 38.6995 29.7507 38.2471 30.6151 37.3405C32.8346 35.008 34.2529 31.993 34.4714 28.6772L33.8025 28.3054C32.8997 27.8032 31.2073 27.2646 29.2772 26.9445C26.9025 26.5497 25.0912 27.3145 22.9024 28.315L22.6916 28.4108C20.5947 29.3691 18.1184 30.5038 14.9061 30.1415C12.5773 29.879 10.5457 29.1468 8.78425 28.3667C7.99841 28.0179 7.25091 27.6537 6.56091 27.3164L6.33091 27.2033C5.64931 26.8618 4.95636 26.5435 4.25325 26.2488L3.93508 26.1204ZM24.0735 4.67671C24.752 5.35329 24.8842 6.36337 24.9111 8.14587H27.4468C29.1574 8.14599 30.8445 8.54431 32.3746 9.30929L33.9769 10.1105C35.2822 9.05821 37.4269 8.98537 39.2918 10.0625C41.5842 11.385 42.5847 13.9438 41.5247 15.778C40.4667 17.6104 37.7489 18.0244 35.4585 16.7019C33.8408 15.7665 32.8652 14.216 32.8058 12.7401L31.0885 11.8815C29.9578 11.3159 28.7111 11.0213 27.4468 11.0209H24.9168V12.4277C23.0626 11.8109 21.1209 11.4977 19.1668 11.5C17.1543 11.5 15.2185 11.8259 13.4168 12.4277V11.0209H13.6219C13.8078 11.0228 14.0244 11.0247 14.2084 11.0209C14.4748 11.0113 14.8352 10.9864 15.1974 10.8752C15.5846 10.7545 16.035 10.5149 16.3627 10.0415C16.6809 9.58529 16.771 9.07354 16.771 8.62504C16.771 8.17654 16.6809 7.66479 16.3627 7.20671C16.0788 6.80553 15.6674 6.51233 15.1955 6.37487C14.8737 6.2831 14.5411 6.23476 14.2065 6.23112C14.0123 6.22697 13.818 6.22633 13.6238 6.22921H13.551C13.6641 5.55071 13.873 5.06004 14.2563 4.67671C15.1035 3.83337 16.4567 3.83337 19.1668 3.83337C21.877 3.83337 23.2321 3.83337 24.0735 4.67671Z" fill="#CA9818"/>
</svg>
