<svg width="64" height="59" viewBox="0 0 64 59" fill="none" xmlns="http://www.w3.org/2000/svg">
<path d="M56.5714 0C58.5416 0 60.4311 0.777014 61.8242 2.16011C63.2173 3.5432 64 5.41908 64 7.37507V25.3475C61.4846 22.1666 57.8418 20.0578 53.8144 19.4513C49.787 18.8449 45.6782 19.7863 42.3258 22.0836C38.9734 24.381 36.6298 27.8613 35.7729 31.815C34.916 35.7686 35.6103 39.8979 37.7143 43.3609V47.6543H7.42857C5.45839 47.6543 3.5689 46.8773 2.17577 45.4942C0.782646 44.1111 0 42.2352 0 40.2792V7.37507C0 5.41908 0.782646 3.5432 2.17577 2.16011C3.5689 0.777014 5.45839 0 7.42857 0H56.5714ZM48 13.6155H16C15.3938 13.6155 14.8124 13.8546 14.3838 14.2802C13.9551 14.7057 13.7143 15.2829 13.7143 15.8848C13.7143 16.4866 13.9551 17.0638 14.3838 17.4894C14.8124 17.9149 15.3938 18.154 16 18.154H48C48.6062 18.154 49.1876 17.9149 49.6162 17.4894C50.0449 17.0638 50.2857 16.4866 50.2857 15.8848C50.2857 15.2829 50.0449 14.7057 49.6162 14.2802C49.1876 13.8546 48.6062 13.6155 48 13.6155ZM32 31.7695C32 31.1677 31.7592 30.5905 31.3305 30.1649C30.9019 29.7394 30.3205 29.5003 29.7143 29.5003H16C15.3938 29.5003 14.8124 29.7394 14.3838 30.1649C13.9551 30.5905 13.7143 31.1677 13.7143 31.7695C13.7143 32.3714 13.9551 32.9486 14.3838 33.3741C14.8124 33.7997 15.3938 34.0388 16 34.0388H29.7143C30.3205 34.0388 30.9019 33.7997 31.3305 33.3741C31.7592 32.9486 32 32.3714 32 31.7695ZM38.8571 35.1734C38.8571 38.4835 40.1816 41.6581 42.5392 43.9987C44.8968 46.3393 48.0944 47.6543 51.4286 47.6543C54.7627 47.6543 57.9603 46.3393 60.3179 43.9987C62.6755 41.6581 64 38.4835 64 35.1734C64 31.8633 62.6755 28.6887 60.3179 26.3481C57.9603 24.0075 54.7627 22.6925 51.4286 22.6925C48.0944 22.6925 44.8968 24.0075 42.5392 26.3481C40.1816 28.6887 38.8571 31.8633 38.8571 35.1734ZM41.1429 47.3411C44.0216 49.7473 47.6654 51.0641 51.4286 51.0582C55.1917 51.0641 58.8355 49.7473 61.7143 47.3411V56.7313C61.7142 57.1359 61.6051 57.5331 61.3985 57.8817C61.1918 58.2304 60.8949 58.5179 60.5387 58.7144C60.1825 58.9109 59.7799 59.0092 59.3725 58.9993C58.9651 58.9894 58.5678 58.8715 58.2217 58.6579L51.4286 54.4598L44.6354 58.6579C44.2892 58.8716 43.8917 58.9895 43.4841 58.9993C43.0765 59.0092 42.6737 58.9106 42.3174 58.7138C41.9611 58.5171 41.6643 58.2293 41.4578 57.8803C41.2513 57.5313 41.1425 57.1338 41.1429 56.729V47.3411Z" fill="white"/>
</svg>
