<svg width="49" height="48" viewBox="0 0 49 48" fill="none" xmlns="http://www.w3.org/2000/svg">
<g clip-path="url(#clip0_4_273)">
<g filter="url(#filter0_b_4_273)">
<path fill-rule="evenodd" clip-rule="evenodd" d="M48.0293 24.4525L48.0287 26.8057L48.027 27.7804L48.024 28.5281L48.0199 29.1583L48.0146 29.7134L48.0081 30.215L48.0005 30.676L47.9916 31.1049L47.9816 31.5074L47.9705 31.8879L47.9581 32.2494L47.9445 32.5945L47.9298 32.9252L47.9139 33.2431L47.8968 33.5494L47.8785 33.8453L47.8591 34.1317L47.8384 34.4094L47.8166 34.6791L47.7936 34.9414L47.7694 35.1967L47.744 35.4456L47.7174 35.6884L47.6896 35.9256L47.6606 36.1574L47.6305 36.3841L47.5991 36.606L47.5665 36.8233L47.5328 37.0363L47.4978 37.2451L47.4616 37.4499L47.4242 37.6509L47.3856 37.8482L47.3458 38.042L47.3048 38.2324L47.2626 38.4195L47.2191 38.6035L47.1744 38.7844L47.1285 38.9624L47.0814 39.1374L47.0331 39.3097L46.9835 39.4793L46.9326 39.6462L46.8806 39.8106L46.8273 39.9725L46.7727 40.1319L46.7169 40.289L46.6598 40.4437L46.6015 40.5961L46.5419 40.7464L46.4811 40.8944L46.419 41.0403L46.3556 41.1841L46.2909 41.3259L46.2249 41.4656L46.1577 41.6034L46.0891 41.7392L46.0193 41.8731L45.9481 42.0051L45.8756 42.1353L45.8018 42.2636L45.7267 42.3901L45.6503 42.5149L45.5725 42.6379L45.4934 42.7591L45.4129 42.8787L45.331 42.9965L45.2478 43.1128L45.1632 43.2273L45.0773 43.3402L44.9899 43.4516L44.9011 43.5613L44.8109 43.6694L44.7193 43.776L44.6263 43.8811L44.5318 43.9846L44.4358 44.0866L44.3384 44.1871L44.2396 44.2861L44.1392 44.3836L44.0373 44.4796L43.9339 44.5742L43.829 44.6674L43.7225 44.7591L43.6145 44.8494L43.5049 44.9383L43.3937 45.0258L43.2809 45.1119L43.1665 45.1966L43.0504 45.2799L42.9327 45.3619L42.8133 45.4425L42.6921 45.5217L42.5693 45.5996L42.4447 45.6761L42.3183 45.7514L42.1901 45.8253L42.0601 45.8978L41.9282 45.9691L41.7945 46.039L41.6588 46.1077L41.5212 46.1751L41.3817 46.2411L41.2401 46.3059L41.0964 46.3694L40.9507 46.4316L40.8028 46.4926L40.6527 46.5523L40.5005 46.6107L40.3459 46.6678L40.1891 46.7238L40.0298 46.7784L39.8681 46.8318L39.704 46.884L39.5372 46.9349L39.3679 46.9846L39.1958 47.0331L39.021 47.0803L38.8432 47.1263L38.6626 47.1711L38.4789 47.2146L38.292 47.2569L38.1018 47.2981L37.9083 47.338L37.7113 47.3766L37.5106 47.4141L37.3061 47.4504L37.0976 47.4855L36.885 47.5193L36.668 47.552L36.4465 47.5835L36.2202 47.6137L35.9888 47.6428L35.7521 47.6707L35.5097 47.6974L35.2613 47.7229L35.0065 47.7472L34.7448 47.7703L34.4758 47.7922L34.1987 47.8129L33.913 47.8325L33.6179 47.8509L33.3125 47.868L32.9956 47.884L32.6659 47.8989L32.322 47.9125L31.9619 47.925L31.583 47.9362L31.1824 47.9463L30.7558 47.9553L30.2976 47.963L29.7996 47.9696L29.2495 47.975L28.6264 47.9792L27.8905 47.9822L26.9422 47.9841L25.1611 47.9848L22.2395 47.9843L21.2361 47.9826L20.4759 47.9797L19.8383 47.9757L19.2782 47.9705L18.7729 47.9641L18.309 47.9566L17.8778 47.9478L17.4734 47.9379L17.0913 47.9268L16.7283 47.9146L16.382 47.9011L16.0502 47.8865L15.7314 47.8707L15.4242 47.8537L15.1275 47.8355L14.8403 47.8161L14.5619 47.7956L14.2916 47.7738L14.0288 47.7509L13.773 47.7268L13.5236 47.7015L13.2803 47.675L13.0427 47.6473L12.8105 47.6184L12.5834 47.5884L12.3611 47.5571L12.1434 47.5246L11.9301 47.4909L11.721 47.4561L11.5159 47.42L11.3146 47.3827L11.117 47.3442L10.9229 47.3045L10.7322 47.2636L10.5448 47.2214L10.3606 47.1781L10.1795 47.1335L10.0013 47.0877L9.82599 47.0407L9.65349 46.9924L9.4837 46.9429L9.31655 46.8922L9.15198 46.8402L8.98991 46.787L8.83028 46.7325L8.67304 46.6768L8.51813 46.6199L8.3655 46.5616L8.2151 46.5022L8.06688 46.4414L7.9208 46.3794L7.77682 46.3161L7.6349 46.2515L7.49499 46.1857L7.35708 46.1185L7.22111 46.0501L7.08707 45.9803L6.95491 45.9093L6.82461 45.8369L6.69614 45.7632L6.56947 45.6882L6.44459 45.6119L6.32146 45.5342L6.20006 45.4552L6.08037 45.3748L5.96236 45.293L5.84603 45.2099L5.73134 45.1255L5.61828 45.0396L5.50683 44.9523L5.39698 44.8637L5.28871 44.7736L5.18199 44.6821L5.07683 44.5892L4.97319 44.4948L4.87108 44.399L4.77047 44.3017L4.67135 44.2029L4.57371 44.1027L4.47754 44.0009L4.38282 43.8977L4.28955 43.7929L4.19771 43.6865L4.1073 43.5786L4.0183 43.4691L3.93071 43.3581L3.84451 43.2454L3.7597 43.1311L3.67627 43.0152L3.5942 42.8976L3.5135 42.7783L3.43415 42.6573L3.35615 42.5346L3.27949 42.4101L3.20417 42.2839L3.13017 42.1558L3.05749 42.026L2.98612 41.8943L2.91606 41.7607L2.84731 41.6252L2.77985 41.4877L2.71368 41.3483L2.6488 41.2069L2.5852 41.0634L2.52287 40.9178L2.46182 40.7701L2.40203 40.6202L2.34351 40.4681L2.28625 40.3138L2.23024 40.1571L2.17549 39.998L2.12198 39.8366L2.06971 39.6726L2.01869 39.5061L1.9689 39.3369L1.92035 39.1651L1.87302 38.9904L1.82693 38.813L1.78205 38.6325L1.7384 38.449L1.69597 38.2624L1.65476 38.0725L1.61476 37.8793L1.57598 37.6825L1.5384 37.4821L1.50203 37.2779L1.46686 37.0698L1.4329 36.8575L1.40014 36.6409L1.36858 36.4197L1.33822 36.1938L1.30906 35.9629L1.28109 35.7266L1.25431 35.4847L1.22872 35.2368L1.20432 34.9825L1.18112 34.7214L1.1591 34.4529L1.13826 34.1765L1.11862 33.8916L1.10015 33.5972L1.08287 33.2926L1.06678 32.9767L1.05186 32.6481L1.03813 32.3054L1.02557 31.9466L1.0142 31.5694L1.00401 31.1706L0.994989 30.7463L0.987151 30.2909L0.98049 29.7964L0.975007 29.251L0.970701 28.6349L0.967572 27.9103L0.965619 26.9862L0.964844 25.3916L0.965245 22.2948L0.966822 21.2599L0.969576 20.4865L0.973508 19.8413L0.978616 19.276L0.984901 18.7669L0.992364 18.3001L1.00101 17.8665L1.01083 17.4601L1.02182 17.0764L1.034 16.712L1.04736 16.3644L1.0619 16.0316L1.07762 15.7117L1.09452 15.4037L1.11261 15.1062L1.13188 14.8183L1.15233 14.5392L1.17397 14.2683L1.1968 14.0049L1.22082 13.7485L1.24603 13.4986L1.27243 13.2549L1.30002 13.0168L1.3288 12.7842L1.35878 12.5567L1.38996 12.3341L1.42234 12.116L1.45592 11.9024L1.4907 11.6929L1.52668 11.4875L1.56388 11.2859L1.60228 11.088L1.64189 10.8937L1.68272 10.7027L1.72476 10.5151L1.76802 10.3306L1.8125 10.1492L1.85821 9.9708L1.90514 9.79528L1.9533 9.62255L2.00269 9.45255L2.05332 9.2852L2.10519 9.12042L2.15831 8.95815L2.21267 8.79833L2.26827 8.6409L2.32514 8.48581L2.38326 8.333L2.44264 8.18242L2.50329 8.03403L2.56521 7.88778L2.6284 7.74364L2.69287 7.60155L2.75863 7.46149L2.82568 7.32342L2.89402 7.1873L2.96366 7.0531L3.03461 6.92079L3.10687 6.79034L3.18045 6.66173L3.25536 6.53492L3.33159 6.4099L3.40916 6.28663L3.48808 6.16509L3.56835 6.04526L3.64998 5.92713L3.73297 5.81066L3.81735 5.69584L3.9031 5.58265L3.99025 5.47108L4.0788 5.3611L4.16876 5.2527L4.26014 5.14586L4.35296 5.04057L4.44721 4.93682L4.54292 4.83458L4.64009 4.73385L4.73873 4.63461L4.83887 4.53686L4.9405 4.44057L5.04365 4.34574L5.14833 4.25235L5.25455 4.1604L5.36232 4.06988L5.47167 3.98077L5.58261 3.89306L5.69515 3.80675L5.80932 3.72183L5.92513 3.63829L6.0426 3.55612L6.16175 3.47531L6.2826 3.39585L6.40518 3.31774L6.5295 3.24098L6.6556 3.16554L6.78349 3.09144L6.9132 3.01865L7.04477 2.94718L7.17821 2.87702L7.31356 2.80816L7.45085 2.7406L7.59012 2.67433L7.73139 2.60934L7.87471 2.54564L8.02012 2.48321L8.16765 2.42206L8.31735 2.36218L8.46927 2.30355L8.62345 2.24619L8.77994 2.19008L8.9388 2.13523L9.10008 2.08162L9.26385 2.02926L9.43017 1.97813L9.59911 1.92825L9.77074 1.87959L9.94514 1.83217L10.1224 1.78598L10.3026 1.74101L10.4858 1.69726L10.6722 1.65474L10.8618 1.61343L11.0548 1.57333L11.2513 1.53445L11.4514 1.49677L11.6552 1.46031L11.8631 1.42505L12.075 1.39099L12.2913 1.35813L12.5121 1.32648L12.7376 1.29602L12.9681 1.26676L13.204 1.23869L13.4454 1.21182L13.6928 1.18614L13.9466 1.16165L14.2071 1.13835L14.475 1.11623L14.7507 1.09531L15.035 1.07556L15.3286 1.05701L15.6323 1.03963L15.9473 1.02344L16.2748 1.00843L16.6163 0.994604L16.9737 0.981957L17.3494 0.970489L17.7463 0.9602L18.1684 0.951089L18.6211 0.943157L19.1121 0.936403L19.6528 0.930826L20.2624 0.926426L20.9761 0.923204L21.8778 0.921157L23.3469 0.920288L26.55 0.920595L27.6199 0.922079L28.4071 0.92474L29.0603 0.928577L29.6308 0.933592L30.1438 0.939783L30.6136 0.947153L31.0496 0.9557L31.458 0.965426L31.8434 0.97633L32.2092 0.988414L32.558 1.00168L32.892 1.01612L33.2128 1.03175L33.5218 1.04856L33.8201 1.06655L34.1087 1.08573L34.3884 1.10609L34.66 1.12763L34.9239 1.15037L35.1809 1.17429L35.4313 1.1994L35.6755 1.22571L35.914 1.2532L36.147 1.28189L36.3749 1.31178L36.598 1.34286L36.8163 1.37514L37.0303 1.40862L37.2401 1.44331L37.4458 1.4792L37.6477 1.5163L37.8459 1.5546L38.0406 1.59412L38.2318 1.63485L38.4197 1.67679L38.6044 1.71995L38.786 1.76434L38.9647 1.80995L39.1404 1.85678L39.3134 1.90485L39.4836 1.95414L39.6511 2.00467L39.8161 2.05645L39.9786 2.10946L40.1386 2.16372L40.2962 2.21923L40.4515 2.27599L40.6045 2.33401L40.7552 2.39329L40.9038 2.45384L41.0502 2.51565L41.1945 2.57875L41.3368 2.64312L41.477 2.70877L41.6152 2.77572L41.7515 2.84396L41.8859 2.9135L42.0183 2.98434L42.1489 3.0565L42.2777 3.12997L42.4046 3.20477L42.5298 3.2809L42.6532 3.35836L42.7749 3.43717L42.8948 3.51734L43.0131 3.59886L43.1297 3.68174L43.2446 3.766L43.358 3.85165L43.4697 3.93869L43.5798 4.02712L43.6883 4.11697L43.7953 4.20824L43.9007 4.30094L44.0045 4.39508L44.1069 4.49067L44.2078 4.58772L44.3071 4.68625L44.405 4.78627L44.5014 4.88778L44.5963 4.99081L44.6898 5.09536L44.7819 5.20146L44.8725 5.30911L44.9618 5.41833L45.0496 5.52914L45.136 5.64156L45.221 5.75559L45.3047 5.87127L45.387 5.98861L45.4679 6.10762L45.5474 6.22834L45.6257 6.35078L45.7025 6.47496L45.7781 6.60092L45.8523 6.72867L45.9252 6.85823L45.9967 6.98965L46.067 7.12294L46.136 7.25814L46.2036 7.39527L46.27 7.53438L46.3351 7.67549L46.3989 7.81865L46.4614 7.96389L46.5227 8.11125L46.5827 8.26078L46.6414 8.41252L46.6989 8.56651L46.7551 8.72282L46.81 8.88149L46.8637 9.04258L46.9162 9.20615L46.9674 9.37226L47.0174 9.54099L47.0661 9.71241L47.1137 9.88658L47.16 10.0636L47.205 10.2436L47.2489 10.4265L47.2915 10.6127L47.3329 10.802L47.3731 10.9947L47.4121 11.1909L47.4498 11.3907L47.4864 11.5943L47.5218 11.8018L47.5559 12.0134L47.5889 12.2293L47.6206 12.4497L47.6512 12.6749L47.6805 12.905L47.7087 13.1404L47.7356 13.3814L47.7614 13.6283L47.786 13.8816L47.8094 14.1416L47.8316 14.4088L47.8526 14.6839L47.8725 14.9675L47.8911 15.2603L47.9086 15.5632L47.9249 15.8772L47.94 16.2037L47.9539 16.544L47.9666 16.9001L47.9782 17.2742L47.9886 17.6693L47.9978 18.0892L48.0058 18.5392L48.0127 19.0268L48.0183 19.563L48.0228 20.1661L48.0261 20.8695L48.0283 21.7504L48.0293 23.1244L48.0293 24.4525Z" fill="white" fill-opacity="0.26"/>
<path fill-rule="evenodd" clip-rule="evenodd" d="M48.0293 24.4525L48.0287 26.8057L48.027 27.7804L48.024 28.5281L48.0199 29.1583L48.0146 29.7134L48.0081 30.215L48.0005 30.676L47.9916 31.1049L47.9816 31.5074L47.9705 31.8879L47.9581 32.2494L47.9445 32.5945L47.9298 32.9252L47.9139 33.2431L47.8968 33.5494L47.8785 33.8453L47.8591 34.1317L47.8384 34.4094L47.8166 34.6791L47.7936 34.9414L47.7694 35.1967L47.744 35.4456L47.7174 35.6884L47.6896 35.9256L47.6606 36.1574L47.6305 36.3841L47.5991 36.606L47.5665 36.8233L47.5328 37.0363L47.4978 37.2451L47.4616 37.4499L47.4242 37.6509L47.3856 37.8482L47.3458 38.042L47.3048 38.2324L47.2626 38.4195L47.2191 38.6035L47.1744 38.7844L47.1285 38.9624L47.0814 39.1374L47.0331 39.3097L46.9835 39.4793L46.9326 39.6462L46.8806 39.8106L46.8273 39.9725L46.7727 40.1319L46.7169 40.289L46.6598 40.4437L46.6015 40.5961L46.5419 40.7464L46.4811 40.8944L46.419 41.0403L46.3556 41.1841L46.2909 41.3259L46.2249 41.4656L46.1577 41.6034L46.0891 41.7392L46.0193 41.8731L45.9481 42.0051L45.8756 42.1353L45.8018 42.2636L45.7267 42.3901L45.6503 42.5149L45.5725 42.6379L45.4934 42.7591L45.4129 42.8787L45.331 42.9965L45.2478 43.1128L45.1632 43.2273L45.0773 43.3402L44.9899 43.4516L44.9011 43.5613L44.8109 43.6694L44.7193 43.776L44.6263 43.8811L44.5318 43.9846L44.4358 44.0866L44.3384 44.1871L44.2396 44.2861L44.1392 44.3836L44.0373 44.4796L43.9339 44.5742L43.829 44.6674L43.7225 44.7591L43.6145 44.8494L43.5049 44.9383L43.3937 45.0258L43.2809 45.1119L43.1665 45.1966L43.0504 45.2799L42.9327 45.3619L42.8133 45.4425L42.6921 45.5217L42.5693 45.5996L42.4447 45.6761L42.3183 45.7514L42.1901 45.8253L42.0601 45.8978L41.9282 45.9691L41.7945 46.039L41.6588 46.1077L41.5212 46.1751L41.3817 46.2411L41.2401 46.3059L41.0964 46.3694L40.9507 46.4316L40.8028 46.4926L40.6527 46.5523L40.5005 46.6107L40.3459 46.6678L40.1891 46.7238L40.0298 46.7784L39.8681 46.8318L39.704 46.884L39.5372 46.9349L39.3679 46.9846L39.1958 47.0331L39.021 47.0803L38.8432 47.1263L38.6626 47.1711L38.4789 47.2146L38.292 47.2569L38.1018 47.2981L37.9083 47.338L37.7113 47.3766L37.5106 47.4141L37.3061 47.4504L37.0976 47.4855L36.885 47.5193L36.668 47.552L36.4465 47.5835L36.2202 47.6137L35.9888 47.6428L35.7521 47.6707L35.5097 47.6974L35.2613 47.7229L35.0065 47.7472L34.7448 47.7703L34.4758 47.7922L34.1987 47.8129L33.913 47.8325L33.6179 47.8509L33.3125 47.868L32.9956 47.884L32.6659 47.8989L32.322 47.9125L31.9619 47.925L31.583 47.9362L31.1824 47.9463L30.7558 47.9553L30.2976 47.963L29.7996 47.9696L29.2495 47.975L28.6264 47.9792L27.8905 47.9822L26.9422 47.9841L25.1611 47.9848L22.2395 47.9843L21.2361 47.9826L20.4759 47.9797L19.8383 47.9757L19.2782 47.9705L18.7729 47.9641L18.309 47.9566L17.8778 47.9478L17.4734 47.9379L17.0913 47.9268L16.7283 47.9146L16.382 47.9011L16.0502 47.8865L15.7314 47.8707L15.4242 47.8537L15.1275 47.8355L14.8403 47.8161L14.5619 47.7956L14.2916 47.7738L14.0288 47.7509L13.773 47.7268L13.5236 47.7015L13.2803 47.675L13.0427 47.6473L12.8105 47.6184L12.5834 47.5884L12.3611 47.5571L12.1434 47.5246L11.9301 47.4909L11.721 47.4561L11.5159 47.42L11.3146 47.3827L11.117 47.3442L10.9229 47.3045L10.7322 47.2636L10.5448 47.2214L10.3606 47.1781L10.1795 47.1335L10.0013 47.0877L9.82599 47.0407L9.65349 46.9924L9.4837 46.9429L9.31655 46.8922L9.15198 46.8402L8.98991 46.787L8.83028 46.7325L8.67304 46.6768L8.51813 46.6199L8.3655 46.5616L8.2151 46.5022L8.06688 46.4414L7.9208 46.3794L7.77682 46.3161L7.6349 46.2515L7.49499 46.1857L7.35708 46.1185L7.22111 46.0501L7.08707 45.9803L6.95491 45.9093L6.82461 45.8369L6.69614 45.7632L6.56947 45.6882L6.44459 45.6119L6.32146 45.5342L6.20006 45.4552L6.08037 45.3748L5.96236 45.293L5.84603 45.2099L5.73134 45.1255L5.61828 45.0396L5.50683 44.9523L5.39698 44.8637L5.28871 44.7736L5.18199 44.6821L5.07683 44.5892L4.97319 44.4948L4.87108 44.399L4.77047 44.3017L4.67135 44.2029L4.57371 44.1027L4.47754 44.0009L4.38282 43.8977L4.28955 43.7929L4.19771 43.6865L4.1073 43.5786L4.0183 43.4691L3.93071 43.3581L3.84451 43.2454L3.7597 43.1311L3.67627 43.0152L3.5942 42.8976L3.5135 42.7783L3.43415 42.6573L3.35615 42.5346L3.27949 42.4101L3.20417 42.2839L3.13017 42.1558L3.05749 42.026L2.98612 41.8943L2.91606 41.7607L2.84731 41.6252L2.77985 41.4877L2.71368 41.3483L2.6488 41.2069L2.5852 41.0634L2.52287 40.9178L2.46182 40.7701L2.40203 40.6202L2.34351 40.4681L2.28625 40.3138L2.23024 40.1571L2.17549 39.998L2.12198 39.8366L2.06971 39.6726L2.01869 39.5061L1.9689 39.3369L1.92035 39.1651L1.87302 38.9904L1.82693 38.813L1.78205 38.6325L1.7384 38.449L1.69597 38.2624L1.65476 38.0725L1.61476 37.8793L1.57598 37.6825L1.5384 37.4821L1.50203 37.2779L1.46686 37.0698L1.4329 36.8575L1.40014 36.6409L1.36858 36.4197L1.33822 36.1938L1.30906 35.9629L1.28109 35.7266L1.25431 35.4847L1.22872 35.2368L1.20432 34.9825L1.18112 34.7214L1.1591 34.4529L1.13826 34.1765L1.11862 33.8916L1.10015 33.5972L1.08287 33.2926L1.06678 32.9767L1.05186 32.6481L1.03813 32.3054L1.02557 31.9466L1.0142 31.5694L1.00401 31.1706L0.994989 30.7463L0.987151 30.2909L0.98049 29.7964L0.975007 29.251L0.970701 28.6349L0.967572 27.9103L0.965619 26.9862L0.964844 25.3916L0.965245 22.2948L0.966822 21.2599L0.969576 20.4865L0.973508 19.8413L0.978616 19.276L0.984901 18.7669L0.992364 18.3001L1.00101 17.8665L1.01083 17.4601L1.02182 17.0764L1.034 16.712L1.04736 16.3644L1.0619 16.0316L1.07762 15.7117L1.09452 15.4037L1.11261 15.1062L1.13188 14.8183L1.15233 14.5392L1.17397 14.2683L1.1968 14.0049L1.22082 13.7485L1.24603 13.4986L1.27243 13.2549L1.30002 13.0168L1.3288 12.7842L1.35878 12.5567L1.38996 12.3341L1.42234 12.116L1.45592 11.9024L1.4907 11.6929L1.52668 11.4875L1.56388 11.2859L1.60228 11.088L1.64189 10.8937L1.68272 10.7027L1.72476 10.5151L1.76802 10.3306L1.8125 10.1492L1.85821 9.9708L1.90514 9.79528L1.9533 9.62255L2.00269 9.45255L2.05332 9.2852L2.10519 9.12042L2.15831 8.95815L2.21267 8.79833L2.26827 8.6409L2.32514 8.48581L2.38326 8.333L2.44264 8.18242L2.50329 8.03403L2.56521 7.88778L2.6284 7.74364L2.69287 7.60155L2.75863 7.46149L2.82568 7.32342L2.89402 7.1873L2.96366 7.0531L3.03461 6.92079L3.10687 6.79034L3.18045 6.66173L3.25536 6.53492L3.33159 6.4099L3.40916 6.28663L3.48808 6.16509L3.56835 6.04526L3.64998 5.92713L3.73297 5.81066L3.81735 5.69584L3.9031 5.58265L3.99025 5.47108L4.0788 5.3611L4.16876 5.2527L4.26014 5.14586L4.35296 5.04057L4.44721 4.93682L4.54292 4.83458L4.64009 4.73385L4.73873 4.63461L4.83887 4.53686L4.9405 4.44057L5.04365 4.34574L5.14833 4.25235L5.25455 4.1604L5.36232 4.06988L5.47167 3.98077L5.58261 3.89306L5.69515 3.80675L5.80932 3.72183L5.92513 3.63829L6.0426 3.55612L6.16175 3.47531L6.2826 3.39585L6.40518 3.31774L6.5295 3.24098L6.6556 3.16554L6.78349 3.09144L6.9132 3.01865L7.04477 2.94718L7.17821 2.87702L7.31356 2.80816L7.45085 2.7406L7.59012 2.67433L7.73139 2.60934L7.87471 2.54564L8.02012 2.48321L8.16765 2.42206L8.31735 2.36218L8.46927 2.30355L8.62345 2.24619L8.77994 2.19008L8.9388 2.13523L9.10008 2.08162L9.26385 2.02926L9.43017 1.97813L9.59911 1.92825L9.77074 1.87959L9.94514 1.83217L10.1224 1.78598L10.3026 1.74101L10.4858 1.69726L10.6722 1.65474L10.8618 1.61343L11.0548 1.57333L11.2513 1.53445L11.4514 1.49677L11.6552 1.46031L11.8631 1.42505L12.075 1.39099L12.2913 1.35813L12.5121 1.32648L12.7376 1.29602L12.9681 1.26676L13.204 1.23869L13.4454 1.21182L13.6928 1.18614L13.9466 1.16165L14.2071 1.13835L14.475 1.11623L14.7507 1.09531L15.035 1.07556L15.3286 1.05701L15.6323 1.03963L15.9473 1.02344L16.2748 1.00843L16.6163 0.994604L16.9737 0.981957L17.3494 0.970489L17.7463 0.9602L18.1684 0.951089L18.6211 0.943157L19.1121 0.936403L19.6528 0.930826L20.2624 0.926426L20.9761 0.923204L21.8778 0.921157L23.3469 0.920288L26.55 0.920595L27.6199 0.922079L28.4071 0.92474L29.0603 0.928577L29.6308 0.933592L30.1438 0.939783L30.6136 0.947153L31.0496 0.9557L31.458 0.965426L31.8434 0.97633L32.2092 0.988414L32.558 1.00168L32.892 1.01612L33.2128 1.03175L33.5218 1.04856L33.8201 1.06655L34.1087 1.08573L34.3884 1.10609L34.66 1.12763L34.9239 1.15037L35.1809 1.17429L35.4313 1.1994L35.6755 1.22571L35.914 1.2532L36.147 1.28189L36.3749 1.31178L36.598 1.34286L36.8163 1.37514L37.0303 1.40862L37.2401 1.44331L37.4458 1.4792L37.6477 1.5163L37.8459 1.5546L38.0406 1.59412L38.2318 1.63485L38.4197 1.67679L38.6044 1.71995L38.786 1.76434L38.9647 1.80995L39.1404 1.85678L39.3134 1.90485L39.4836 1.95414L39.6511 2.00467L39.8161 2.05645L39.9786 2.10946L40.1386 2.16372L40.2962 2.21923L40.4515 2.27599L40.6045 2.33401L40.7552 2.39329L40.9038 2.45384L41.0502 2.51565L41.1945 2.57875L41.3368 2.64312L41.477 2.70877L41.6152 2.77572L41.7515 2.84396L41.8859 2.9135L42.0183 2.98434L42.1489 3.0565L42.2777 3.12997L42.4046 3.20477L42.5298 3.2809L42.6532 3.35836L42.7749 3.43717L42.8948 3.51734L43.0131 3.59886L43.1297 3.68174L43.2446 3.766L43.358 3.85165L43.4697 3.93869L43.5798 4.02712L43.6883 4.11697L43.7953 4.20824L43.9007 4.30094L44.0045 4.39508L44.1069 4.49067L44.2078 4.58772L44.3071 4.68625L44.405 4.78627L44.5014 4.88778L44.5963 4.99081L44.6898 5.09536L44.7819 5.20146L44.8725 5.30911L44.9618 5.41833L45.0496 5.52914L45.136 5.64156L45.221 5.75559L45.3047 5.87127L45.387 5.98861L45.4679 6.10762L45.5474 6.22834L45.6257 6.35078L45.7025 6.47496L45.7781 6.60092L45.8523 6.72867L45.9252 6.85823L45.9967 6.98965L46.067 7.12294L46.136 7.25814L46.2036 7.39527L46.27 7.53438L46.3351 7.67549L46.3989 7.81865L46.4614 7.96389L46.5227 8.11125L46.5827 8.26078L46.6414 8.41252L46.6989 8.56651L46.7551 8.72282L46.81 8.88149L46.8637 9.04258L46.9162 9.20615L46.9674 9.37226L47.0174 9.54099L47.0661 9.71241L47.1137 9.88658L47.16 10.0636L47.205 10.2436L47.2489 10.4265L47.2915 10.6127L47.3329 10.802L47.3731 10.9947L47.4121 11.1909L47.4498 11.3907L47.4864 11.5943L47.5218 11.8018L47.5559 12.0134L47.5889 12.2293L47.6206 12.4497L47.6512 12.6749L47.6805 12.905L47.7087 13.1404L47.7356 13.3814L47.7614 13.6283L47.786 13.8816L47.8094 14.1416L47.8316 14.4088L47.8526 14.6839L47.8725 14.9675L47.8911 15.2603L47.9086 15.5632L47.9249 15.8772L47.94 16.2037L47.9539 16.544L47.9666 16.9001L47.9782 17.2742L47.9886 17.6693L47.9978 18.0892L48.0058 18.5392L48.0127 19.0268L48.0183 19.563L48.0228 20.1661L48.0261 20.8695L48.0283 21.7504L48.0293 23.1244L48.0293 24.4525Z" stroke="black" stroke-opacity="0.04" stroke-width="0.490255"/>
</g>
<path d="M26.4607 18.5693L32.3438 24.4524M32.3438 24.4524L26.4607 30.3355M32.3438 24.4524H17.6361" stroke="white" stroke-width="1.96102" stroke-linecap="round" stroke-linejoin="round"/>
</g>
<defs>
<filter id="filter0_b_4_273" x="-3.20329" y="-3.24687" width="55.4007" height="55.3988" filterUnits="userSpaceOnUse" color-interpolation-filters="sRGB">
<feFlood flood-opacity="0" result="BackgroundImageFix"/>
<feGaussianBlur in="BackgroundImageFix" stdDeviation="1.96102"/>
<feComposite in2="SourceAlpha" operator="in" result="effect1_backgroundBlur_4_273"/>
<feBlend mode="normal" in="SourceGraphic" in2="effect1_backgroundBlur_4_273" result="shape"/>
</filter>
<clipPath id="clip0_4_273">
<rect x="0.964844" y="0.920288" width="47.0645" height="47.0645" rx="23.5322" fill="white"/>
</clipPath>
</defs>
</svg>
