<svg width="48" height="48" viewBox="0 0 48 48" fill="none" xmlns="http://www.w3.org/2000/svg">
<g clip-path="url(#clip0_4_277)">
<g filter="url(#filter0_b_4_277)">
<path fill-rule="evenodd" clip-rule="evenodd" d="M0.0800649 24.4525L0.0806526 22.0993L0.0824189 21.1247L0.0853601 20.3769L0.08948 19.7467L0.0947749 19.1916L0.101248 18.69L0.108897 18.229L0.117728 17.8001L0.127734 17.3976L0.138923 17.0172L0.151286 16.6556L0.164832 16.3105L0.179561 15.9798L0.195468 15.6619L0.212562 15.3556L0.230834 15.0597L0.250293 14.7733L0.270938 14.4956L0.292766 14.2259L0.315787 13.9636L0.339992 13.7083L0.36539 13.4594L0.391978 13.2166L0.419761 12.9794L0.448734 12.7476L0.478908 12.5209L0.510276 12.299L0.542842 12.0817L0.576614 11.8688L0.611583 11.66L0.647765 11.4552L0.685146 11.2542L0.723739 11.0568L0.763549 10.863L0.804569 10.6726L0.846801 10.4855L0.890258 10.3015L0.934932 10.1206L0.980834 9.94267L1.02796 9.7676L1.07632 9.59531L1.12592 9.42573L1.17674 9.2588L1.22881 9.09442L1.28212 8.93255L1.33668 8.77311L1.39248 8.61606L1.44955 8.46133L1.50787 8.30888L1.56745 8.15866L1.6283 8.01061L1.69042 7.8647L1.75382 7.72088L1.8185 7.57912L1.88446 7.43938L1.95171 7.30162L2.02026 7.16581L2.09011 7.03191L2.16127 6.89991L2.23374 6.76975L2.30753 6.64143L2.38265 6.5149L2.45909 6.39016L2.53688 6.26717L2.61601 6.1459L2.6965 6.02635L2.77834 5.90848L2.86156 5.79227L2.94615 5.67772L3.03212 5.56478L3.1195 5.45347L3.20827 5.34374L3.29846 5.23559L3.39007 5.129L3.4831 5.02396L3.57759 4.92045L3.67353 4.81845L3.77094 4.71796L3.86982 4.61896L3.97019 4.52144L4.07207 4.42538L4.17546 4.33078L4.28038 4.23763L4.38684 4.1459L4.49487 4.0556L4.60447 3.96672L4.71566 3.87923L4.82846 3.79314L4.94289 3.70844L5.05896 3.62512L5.1767 3.54317L5.29612 3.46257L5.41724 3.38334L5.5401 3.30544L5.6647 3.22889L5.79108 3.15366L5.91926 3.07977L6.04927 3.00719L6.18113 2.93593L6.31488 2.86598L6.45053 2.79733L6.58813 2.72997L6.72772 2.6639L6.86932 2.59912L7.01297 2.53562L7.15871 2.4734L7.30658 2.41245L7.45663 2.35277L7.60891 2.29435L7.76345 2.23718L7.92032 2.18127L8.07956 2.12662L8.24124 2.07321L8.40541 2.02104L8.57214 1.97012L8.7415 1.92043L8.91357 1.87197L9.08842 1.82475L9.26613 1.77875L9.4468 1.73397L9.63052 1.69042L9.8174 1.64809L10.0075 1.60697L10.2011 1.56707L10.3981 1.52838L10.5988 1.49089L10.8033 1.45462L11.0118 1.41956L11.2244 1.38569L11.4414 1.35302L11.6629 1.32156L11.8892 1.29129L12.1206 1.26222L12.3573 1.23435L12.5997 1.20767L12.848 1.18218L13.1029 1.15787L13.3645 1.13476L13.6336 1.11284L13.9107 1.0921L14.1963 1.07254L14.4915 1.05417L14.7969 1.03699L15.1138 1.02099L15.4434 1.00617L15.7874 0.992524L16.1475 0.980062L16.5263 0.968785L16.927 0.958684L17.3536 0.949762L17.8118 0.942018L18.3097 0.935449L18.8599 0.930059L19.483 0.925847L20.2189 0.922815L21.1672 0.920953L22.9482 0.920271L25.8699 0.920767L26.8732 0.922442L27.6335 0.925287L28.2711 0.929312L28.8312 0.934511L29.3365 0.940894L29.8004 0.948447L30.2316 0.957186L30.636 0.967097L31.0181 0.97819L31.381 0.990462L31.7274 1.00391L32.0592 1.01855L32.378 1.03437L32.6852 1.05136L32.9819 1.06954L33.2691 1.0889L33.5474 1.10945L33.8177 1.13119L34.0806 1.15411L34.3364 1.17822L34.5858 1.20353L34.8291 1.23002L35.0667 1.25771L35.2989 1.28659L35.526 1.31666L35.7483 1.34794L35.966 1.38041L36.1793 1.41408L36.3884 1.44896L36.5935 1.48504L36.7948 1.52233L36.9924 1.56083L37.1865 1.60054L37.3772 1.64146L37.5645 1.6836L37.7488 1.72695L37.9299 1.77154L38.1081 1.81734L38.2834 1.86437L38.4559 1.91263L38.6257 1.96212L38.7928 2.01285L38.9574 2.06482L39.1195 2.11803L39.2791 2.17249L39.4363 2.2282L39.5912 2.28516L39.7439 2.34338L39.8943 2.40286L40.0425 2.46361L40.1886 2.52563L40.3326 2.58893L40.4745 2.6535L40.6144 2.71936L40.7523 2.78651L40.8883 2.85496L41.0223 2.92471L41.1545 2.99576L41.2848 3.06813L41.4132 3.14181L41.5399 3.21682L41.6648 3.29316L41.7879 3.37084L41.9093 3.44986L42.029 3.53024L42.147 3.61198L42.2634 3.69509L42.378 3.77957L42.4911 3.86544L42.6025 3.95269L42.7124 4.04135L42.8207 4.13143L42.9274 4.22292L43.0326 4.31585L43.1362 4.41022L43.2383 4.50604L43.3389 4.60333L43.438 4.70209L43.5357 4.80235L43.6318 4.90411L43.7266 5.00737L43.8198 5.11217L43.9117 5.21851L44.0021 5.32642L44.0911 5.43589L44.1787 5.54695L44.2649 5.65963L44.3497 5.77392L44.4331 5.88986L44.5152 6.00747L44.5959 6.12675L44.6752 6.24774L44.7532 6.37046L44.8299 6.49492L44.9052 6.62116L44.9792 6.74919L45.0519 6.87905L45.1233 7.01076L45.1933 7.14436L45.2621 7.27986L45.3295 7.41731L45.3957 7.55674L45.4606 7.69817L45.5242 7.84166L45.5865 7.98724L45.6476 8.13494L45.7073 8.28481L45.7659 8.4369L45.8231 8.59127L45.8791 8.74795L45.9339 8.907L45.9874 9.06848L46.0397 9.23245L46.0907 9.39898L46.1405 9.56813L46.189 9.73998L46.2364 9.9146L46.2825 10.0921L46.3273 10.2725L46.371 10.456L46.4134 10.6426L46.4546 10.8325L46.4946 11.0257L46.5334 11.2225L46.571 11.4229L46.6073 11.6271L46.6425 11.8352L46.6765 12.0475L46.7092 12.2641L46.7408 12.4853L46.7712 12.7112L46.8003 12.9422L46.8283 13.1784L46.8551 13.4203L46.8807 13.6682L46.9051 13.9225L46.9283 14.1837L46.9503 14.4521L46.9711 14.7285L46.9908 15.0135L47.0092 15.3078L47.0265 15.6124L47.0426 15.9283L47.0575 16.2569L47.0712 16.5996L47.0838 16.9584L47.0952 17.3356L47.1054 17.7344L47.1144 18.1587L47.1222 18.6142L47.1289 19.1086L47.1344 19.654L47.1387 20.2702L47.1418 20.9947L47.1438 21.9189L47.1445 23.5134L47.1441 26.6102L47.1426 27.6451L47.1398 28.4185L47.1359 29.0638L47.1308 29.629L47.1245 30.1381L47.117 30.6049L47.1084 31.0385L47.0986 31.4449L47.0876 31.8286L47.0754 32.193L47.062 32.5406L47.0475 32.8735L47.0318 33.1933L47.0149 33.5014L46.9968 33.7989L46.9775 34.0867L46.957 34.3658L46.9354 34.6367L46.9126 34.9001L46.8886 35.1565L46.8633 35.4064L46.837 35.6502L46.8094 35.8882L46.7806 36.1208L46.7506 36.3483L46.7194 36.571L46.687 36.789L46.6535 37.0026L46.6187 37.2121L46.5827 37.4175L46.5455 37.6191L46.5071 37.817L46.4675 38.0114L46.4267 38.2023L46.3846 38.39L46.3414 38.5744L46.2969 38.7558L46.2512 38.9342L46.2042 39.1098L46.1561 39.2825L46.1067 39.4525L46.0561 39.6198L46.0042 39.7846L45.9511 39.9469L45.8967 40.1067L45.8411 40.2641L45.7842 40.4192L45.7261 40.572L45.6667 40.7226L45.6061 40.871L45.5442 41.0172L45.481 41.1614L45.4165 41.3035L45.3507 41.4435L45.2837 41.5816L45.2154 41.7177L45.1457 41.8519L45.0748 41.9842L45.0025 42.1147L44.9289 42.2433L44.854 42.3701L44.7778 42.4951L44.7002 42.6184L44.6213 42.7399L44.541 42.8598L44.4594 42.9779L44.3764 43.0944L44.292 43.2092L44.2063 43.3224L44.1191 43.434L44.0306 43.5439L43.9406 43.6523L43.8492 43.7592L43.7564 43.8645L43.6622 43.9682L43.5665 44.0704L43.4693 44.1712L43.3706 44.2704L43.2705 44.3682L43.1689 44.4645L43.0657 44.5593L42.961 44.6527L42.8548 44.7446L42.7471 44.8352L42.6377 44.9243L42.5268 45.012L42.4142 45.0983L42.3001 45.1832L42.1842 45.2667L42.0668 45.3489L41.9476 45.4297L41.8268 45.5092L41.7042 45.5873L41.5799 45.6641L41.4538 45.7395L41.3259 45.8136L41.1962 45.8864L41.0646 45.9578L40.9312 46.028L40.7958 46.0969L40.6585 46.1644L40.5193 46.2307L40.378 46.2957L40.2347 46.3594L40.0893 46.4218L39.9417 46.483L39.792 46.5429L39.6401 46.6015L39.4859 46.6588L39.3294 46.7149L39.1706 46.7698L39.0093 46.8234L38.8455 46.8758L38.6792 46.9269L38.5103 46.9768L38.3386 47.0254L38.1642 47.0729L37.987 47.1191L37.8068 47.164L37.6236 47.2078L37.4372 47.2503L37.2476 47.2916L37.0546 47.3317L36.8581 47.3706L36.658 47.4083L36.4541 47.4447L36.2463 47.48L36.0344 47.514L35.8181 47.5469L35.5973 47.5785L35.3718 47.609L35.1412 47.6383L34.9054 47.6663L34.664 47.6932L34.4165 47.7189L34.1628 47.7434L33.9022 47.7667L33.6344 47.7888L33.3586 47.8097L33.0744 47.8295L32.7808 47.848L32.4771 47.8654L32.1621 47.8816L31.8346 47.8966L31.4931 47.9104L31.1356 47.9231L30.76 47.9345L30.3631 47.9448L29.9409 47.9539L29.4882 47.9619L28.9973 47.9686L28.4565 47.9742L27.847 47.9786L27.1333 47.9818L26.2315 47.9839L24.7625 47.9847L21.5593 47.9844L20.4895 47.9829L19.7023 47.9803L19.0491 47.9764L18.4786 47.9714L17.9656 47.9652L17.4958 47.9579L17.0598 47.9493L16.6514 47.9396L16.266 47.9287L15.9002 47.9166L15.5514 47.9033L15.2174 47.8889L14.8966 47.8733L14.5876 47.8565L14.2893 47.8385L14.0007 47.8193L13.721 47.7989L13.4494 47.7774L13.1854 47.7547L12.9285 47.7307L12.6781 47.7056L12.4338 47.6793L12.1954 47.6518L11.9623 47.6231L11.7344 47.5932L11.5114 47.5622L11.293 47.5299L11.079 47.4964L10.8693 47.4617L10.6635 47.4258L10.4616 47.3887L10.2634 47.3504L10.0688 47.3109L9.8776 47.2702L9.6897 47.2282L9.50499 47.1851L9.32335 47.1407L9.14471 47.0951L8.96896 47.0482L8.79601 47.0002L8.6258 46.9509L8.45824 46.9004L8.29325 46.8486L8.13079 46.7956L7.97078 46.7413L7.81316 46.6858L7.65788 46.629L7.50489 46.571L7.35414 46.5117L7.20557 46.4512L7.05916 46.3894L6.91485 46.3263L6.7726 46.2619L6.63237 46.1963L6.49414 46.1293L6.35787 46.0611L6.22352 45.9915L6.09106 45.9207L5.96047 45.8485L5.83171 45.7751L5.70476 45.7003L5.57959 45.6241L5.45618 45.5467L5.33451 45.4679L5.21455 45.3877L5.09628 45.3062L4.97968 45.2233L4.86473 45.139L4.75141 45.0534L4.63971 44.9663L4.52961 44.8779L4.42108 44.7881L4.31412 44.6968L4.20871 44.6041L4.10483 44.5099L4.00247 44.4144L3.90162 44.3173L3.80227 44.2188L3.7044 44.1188L3.60799 44.0172L3.51304 43.9142L3.41954 43.8097L3.32748 43.7036L3.23684 43.5959L3.14762 43.4867L3.0598 43.3759L2.97338 43.2635L2.88835 43.1494L2.8047 43.0338L2.72242 42.9164L2.6415 42.7974L2.56194 42.6767L2.48372 42.5542L2.40685 42.4301L2.33131 42.3041L2.2571 42.1764L2.18421 42.0468L2.11263 41.9154L2.04237 41.7821L1.9734 41.6469L1.90574 41.5098L1.83936 41.3706L1.77428 41.2295L1.71048 41.0864L1.64795 40.9411L1.58669 40.7938L1.52671 40.6442L1.46798 40.4925L1.41052 40.3385L1.35431 40.1822L1.29936 40.0235L1.24565 39.8624L1.19319 39.6989L1.14196 39.5328L1.09198 39.364L1.04323 39.1926L0.995713 39.0184L0.949418 38.8414L0.904351 38.6615L0.860509 38.4785L0.817887 38.2924L0.776479 38.103L0.736287 37.9103L0.697308 37.7141L0.659535 37.5143L0.622975 37.3107L0.587621 37.1032L0.553468 36.8916L0.520516 36.6757L0.488763 36.4553L0.458211 36.2301L0.428857 36L0.400693 35.7646L0.373727 35.5236L0.347951 35.2767L0.323365 35.0235L0.299966 34.7635L0.277757 34.4962L0.256738 34.2211L0.236902 33.9376L0.218248 33.6448L0.200784 33.3419L0.184495 33.0278L0.169393 32.7014L0.155473 32.361L0.142728 32.005L0.131166 31.6308L0.120786 31.2357L0.111585 30.8158L0.103555 30.3658L0.096708 29.8782L0.0910356 29.342L0.0865457 28.739L0.083227 28.0355L0.081087 27.1546L0.0801258 25.7806L0.0800649 24.4525Z" fill="white" fill-opacity="0.26"/>
<path fill-rule="evenodd" clip-rule="evenodd" d="M0.0800649 24.4525L0.0806526 22.0993L0.0824189 21.1247L0.0853601 20.3769L0.08948 19.7467L0.0947749 19.1916L0.101248 18.69L0.108897 18.229L0.117728 17.8001L0.127734 17.3976L0.138923 17.0172L0.151286 16.6556L0.164832 16.3105L0.179561 15.9798L0.195468 15.6619L0.212562 15.3556L0.230834 15.0597L0.250293 14.7733L0.270938 14.4956L0.292766 14.2259L0.315787 13.9636L0.339992 13.7083L0.36539 13.4594L0.391978 13.2166L0.419761 12.9794L0.448734 12.7476L0.478908 12.5209L0.510276 12.299L0.542842 12.0817L0.576614 11.8688L0.611583 11.66L0.647765 11.4552L0.685146 11.2542L0.723739 11.0568L0.763549 10.863L0.804569 10.6726L0.846801 10.4855L0.890258 10.3015L0.934932 10.1206L0.980834 9.94267L1.02796 9.7676L1.07632 9.59531L1.12592 9.42573L1.17674 9.2588L1.22881 9.09442L1.28212 8.93255L1.33668 8.77311L1.39248 8.61606L1.44955 8.46133L1.50787 8.30888L1.56745 8.15866L1.6283 8.01061L1.69042 7.8647L1.75382 7.72088L1.8185 7.57912L1.88446 7.43938L1.95171 7.30162L2.02026 7.16581L2.09011 7.03191L2.16127 6.89991L2.23374 6.76975L2.30753 6.64143L2.38265 6.5149L2.45909 6.39016L2.53688 6.26717L2.61601 6.1459L2.6965 6.02635L2.77834 5.90848L2.86156 5.79227L2.94615 5.67772L3.03212 5.56478L3.1195 5.45347L3.20827 5.34374L3.29846 5.23559L3.39007 5.129L3.4831 5.02396L3.57759 4.92045L3.67353 4.81845L3.77094 4.71796L3.86982 4.61896L3.97019 4.52144L4.07207 4.42538L4.17546 4.33078L4.28038 4.23763L4.38684 4.1459L4.49487 4.0556L4.60447 3.96672L4.71566 3.87923L4.82846 3.79314L4.94289 3.70844L5.05896 3.62512L5.1767 3.54317L5.29612 3.46257L5.41724 3.38334L5.5401 3.30544L5.6647 3.22889L5.79108 3.15366L5.91926 3.07977L6.04927 3.00719L6.18113 2.93593L6.31488 2.86598L6.45053 2.79733L6.58813 2.72997L6.72772 2.6639L6.86932 2.59912L7.01297 2.53562L7.15871 2.4734L7.30658 2.41245L7.45663 2.35277L7.60891 2.29435L7.76345 2.23718L7.92032 2.18127L8.07956 2.12662L8.24124 2.07321L8.40541 2.02104L8.57214 1.97012L8.7415 1.92043L8.91357 1.87197L9.08842 1.82475L9.26613 1.77875L9.4468 1.73397L9.63052 1.69042L9.8174 1.64809L10.0075 1.60697L10.2011 1.56707L10.3981 1.52838L10.5988 1.49089L10.8033 1.45462L11.0118 1.41956L11.2244 1.38569L11.4414 1.35302L11.6629 1.32156L11.8892 1.29129L12.1206 1.26222L12.3573 1.23435L12.5997 1.20767L12.848 1.18218L13.1029 1.15787L13.3645 1.13476L13.6336 1.11284L13.9107 1.0921L14.1963 1.07254L14.4915 1.05417L14.7969 1.03699L15.1138 1.02099L15.4434 1.00617L15.7874 0.992524L16.1475 0.980062L16.5263 0.968785L16.927 0.958684L17.3536 0.949762L17.8118 0.942018L18.3097 0.935449L18.8599 0.930059L19.483 0.925847L20.2189 0.922815L21.1672 0.920953L22.9482 0.920271L25.8699 0.920767L26.8732 0.922442L27.6335 0.925287L28.2711 0.929312L28.8312 0.934511L29.3365 0.940894L29.8004 0.948447L30.2316 0.957186L30.636 0.967097L31.0181 0.97819L31.381 0.990462L31.7274 1.00391L32.0592 1.01855L32.378 1.03437L32.6852 1.05136L32.9819 1.06954L33.2691 1.0889L33.5474 1.10945L33.8177 1.13119L34.0806 1.15411L34.3364 1.17822L34.5858 1.20353L34.8291 1.23002L35.0667 1.25771L35.2989 1.28659L35.526 1.31666L35.7483 1.34794L35.966 1.38041L36.1793 1.41408L36.3884 1.44896L36.5935 1.48504L36.7948 1.52233L36.9924 1.56083L37.1865 1.60054L37.3772 1.64146L37.5645 1.6836L37.7488 1.72695L37.9299 1.77154L38.1081 1.81734L38.2834 1.86437L38.4559 1.91263L38.6257 1.96212L38.7928 2.01285L38.9574 2.06482L39.1195 2.11803L39.2791 2.17249L39.4363 2.2282L39.5912 2.28516L39.7439 2.34338L39.8943 2.40286L40.0425 2.46361L40.1886 2.52563L40.3326 2.58893L40.4745 2.6535L40.6144 2.71936L40.7523 2.78651L40.8883 2.85496L41.0223 2.92471L41.1545 2.99576L41.2848 3.06813L41.4132 3.14181L41.5399 3.21682L41.6648 3.29316L41.7879 3.37084L41.9093 3.44986L42.029 3.53024L42.147 3.61198L42.2634 3.69509L42.378 3.77957L42.4911 3.86544L42.6025 3.95269L42.7124 4.04135L42.8207 4.13143L42.9274 4.22292L43.0326 4.31585L43.1362 4.41022L43.2383 4.50604L43.3389 4.60333L43.438 4.70209L43.5357 4.80235L43.6318 4.90411L43.7266 5.00737L43.8198 5.11217L43.9117 5.21851L44.0021 5.32642L44.0911 5.43589L44.1787 5.54695L44.2649 5.65963L44.3497 5.77392L44.4331 5.88986L44.5152 6.00747L44.5959 6.12675L44.6752 6.24774L44.7532 6.37046L44.8299 6.49492L44.9052 6.62116L44.9792 6.74919L45.0519 6.87905L45.1233 7.01076L45.1933 7.14436L45.2621 7.27986L45.3295 7.41731L45.3957 7.55674L45.4606 7.69817L45.5242 7.84166L45.5865 7.98724L45.6476 8.13494L45.7073 8.28481L45.7659 8.4369L45.8231 8.59127L45.8791 8.74795L45.9339 8.907L45.9874 9.06848L46.0397 9.23245L46.0907 9.39898L46.1405 9.56813L46.189 9.73998L46.2364 9.9146L46.2825 10.0921L46.3273 10.2725L46.371 10.456L46.4134 10.6426L46.4546 10.8325L46.4946 11.0257L46.5334 11.2225L46.571 11.4229L46.6073 11.6271L46.6425 11.8352L46.6765 12.0475L46.7092 12.2641L46.7408 12.4853L46.7712 12.7112L46.8003 12.9422L46.8283 13.1784L46.8551 13.4203L46.8807 13.6682L46.9051 13.9225L46.9283 14.1837L46.9503 14.4521L46.9711 14.7285L46.9908 15.0135L47.0092 15.3078L47.0265 15.6124L47.0426 15.9283L47.0575 16.2569L47.0712 16.5996L47.0838 16.9584L47.0952 17.3356L47.1054 17.7344L47.1144 18.1587L47.1222 18.6142L47.1289 19.1086L47.1344 19.654L47.1387 20.2702L47.1418 20.9947L47.1438 21.9189L47.1445 23.5134L47.1441 26.6102L47.1426 27.6451L47.1398 28.4185L47.1359 29.0638L47.1308 29.629L47.1245 30.1381L47.117 30.6049L47.1084 31.0385L47.0986 31.4449L47.0876 31.8286L47.0754 32.193L47.062 32.5406L47.0475 32.8735L47.0318 33.1933L47.0149 33.5014L46.9968 33.7989L46.9775 34.0867L46.957 34.3658L46.9354 34.6367L46.9126 34.9001L46.8886 35.1565L46.8633 35.4064L46.837 35.6502L46.8094 35.8882L46.7806 36.1208L46.7506 36.3483L46.7194 36.571L46.687 36.789L46.6535 37.0026L46.6187 37.2121L46.5827 37.4175L46.5455 37.6191L46.5071 37.817L46.4675 38.0114L46.4267 38.2023L46.3846 38.39L46.3414 38.5744L46.2969 38.7558L46.2512 38.9342L46.2042 39.1098L46.1561 39.2825L46.1067 39.4525L46.0561 39.6198L46.0042 39.7846L45.9511 39.9469L45.8967 40.1067L45.8411 40.2641L45.7842 40.4192L45.7261 40.572L45.6667 40.7226L45.6061 40.871L45.5442 41.0172L45.481 41.1614L45.4165 41.3035L45.3507 41.4435L45.2837 41.5816L45.2154 41.7177L45.1457 41.8519L45.0748 41.9842L45.0025 42.1147L44.9289 42.2433L44.854 42.3701L44.7778 42.4951L44.7002 42.6184L44.6213 42.7399L44.541 42.8598L44.4594 42.9779L44.3764 43.0944L44.292 43.2092L44.2063 43.3224L44.1191 43.434L44.0306 43.5439L43.9406 43.6523L43.8492 43.7592L43.7564 43.8645L43.6622 43.9682L43.5665 44.0704L43.4693 44.1712L43.3706 44.2704L43.2705 44.3682L43.1689 44.4645L43.0657 44.5593L42.961 44.6527L42.8548 44.7446L42.7471 44.8352L42.6377 44.9243L42.5268 45.012L42.4142 45.0983L42.3001 45.1832L42.1842 45.2667L42.0668 45.3489L41.9476 45.4297L41.8268 45.5092L41.7042 45.5873L41.5799 45.6641L41.4538 45.7395L41.3259 45.8136L41.1962 45.8864L41.0646 45.9578L40.9312 46.028L40.7958 46.0969L40.6585 46.1644L40.5193 46.2307L40.378 46.2957L40.2347 46.3594L40.0893 46.4218L39.9417 46.483L39.792 46.5429L39.6401 46.6015L39.4859 46.6588L39.3294 46.7149L39.1706 46.7698L39.0093 46.8234L38.8455 46.8758L38.6792 46.9269L38.5103 46.9768L38.3386 47.0254L38.1642 47.0729L37.987 47.1191L37.8068 47.164L37.6236 47.2078L37.4372 47.2503L37.2476 47.2916L37.0546 47.3317L36.8581 47.3706L36.658 47.4083L36.4541 47.4447L36.2463 47.48L36.0344 47.514L35.8181 47.5469L35.5973 47.5785L35.3718 47.609L35.1412 47.6383L34.9054 47.6663L34.664 47.6932L34.4165 47.7189L34.1628 47.7434L33.9022 47.7667L33.6344 47.7888L33.3586 47.8097L33.0744 47.8295L32.7808 47.848L32.4771 47.8654L32.1621 47.8816L31.8346 47.8966L31.4931 47.9104L31.1356 47.9231L30.76 47.9345L30.3631 47.9448L29.9409 47.9539L29.4882 47.9619L28.9973 47.9686L28.4565 47.9742L27.847 47.9786L27.1333 47.9818L26.2315 47.9839L24.7625 47.9847L21.5593 47.9844L20.4895 47.9829L19.7023 47.9803L19.0491 47.9764L18.4786 47.9714L17.9656 47.9652L17.4958 47.9579L17.0598 47.9493L16.6514 47.9396L16.266 47.9287L15.9002 47.9166L15.5514 47.9033L15.2174 47.8889L14.8966 47.8733L14.5876 47.8565L14.2893 47.8385L14.0007 47.8193L13.721 47.7989L13.4494 47.7774L13.1854 47.7547L12.9285 47.7307L12.6781 47.7056L12.4338 47.6793L12.1954 47.6518L11.9623 47.6231L11.7344 47.5932L11.5114 47.5622L11.293 47.5299L11.079 47.4964L10.8693 47.4617L10.6635 47.4258L10.4616 47.3887L10.2634 47.3504L10.0688 47.3109L9.8776 47.2702L9.6897 47.2282L9.50499 47.1851L9.32335 47.1407L9.14471 47.0951L8.96896 47.0482L8.79601 47.0002L8.6258 46.9509L8.45824 46.9004L8.29325 46.8486L8.13079 46.7956L7.97078 46.7413L7.81316 46.6858L7.65788 46.629L7.50489 46.571L7.35414 46.5117L7.20557 46.4512L7.05916 46.3894L6.91485 46.3263L6.7726 46.2619L6.63237 46.1963L6.49414 46.1293L6.35787 46.0611L6.22352 45.9915L6.09106 45.9207L5.96047 45.8485L5.83171 45.7751L5.70476 45.7003L5.57959 45.6241L5.45618 45.5467L5.33451 45.4679L5.21455 45.3877L5.09628 45.3062L4.97968 45.2233L4.86473 45.139L4.75141 45.0534L4.63971 44.9663L4.52961 44.8779L4.42108 44.7881L4.31412 44.6968L4.20871 44.6041L4.10483 44.5099L4.00247 44.4144L3.90162 44.3173L3.80227 44.2188L3.7044 44.1188L3.60799 44.0172L3.51304 43.9142L3.41954 43.8097L3.32748 43.7036L3.23684 43.5959L3.14762 43.4867L3.0598 43.3759L2.97338 43.2635L2.88835 43.1494L2.8047 43.0338L2.72242 42.9164L2.6415 42.7974L2.56194 42.6767L2.48372 42.5542L2.40685 42.4301L2.33131 42.3041L2.2571 42.1764L2.18421 42.0468L2.11263 41.9154L2.04237 41.7821L1.9734 41.6469L1.90574 41.5098L1.83936 41.3706L1.77428 41.2295L1.71048 41.0864L1.64795 40.9411L1.58669 40.7938L1.52671 40.6442L1.46798 40.4925L1.41052 40.3385L1.35431 40.1822L1.29936 40.0235L1.24565 39.8624L1.19319 39.6989L1.14196 39.5328L1.09198 39.364L1.04323 39.1926L0.995713 39.0184L0.949418 38.8414L0.904351 38.6615L0.860509 38.4785L0.817887 38.2924L0.776479 38.103L0.736287 37.9103L0.697308 37.7141L0.659535 37.5143L0.622975 37.3107L0.587621 37.1032L0.553468 36.8916L0.520516 36.6757L0.488763 36.4553L0.458211 36.2301L0.428857 36L0.400693 35.7646L0.373727 35.5236L0.347951 35.2767L0.323365 35.0235L0.299966 34.7635L0.277757 34.4962L0.256738 34.2211L0.236902 33.9376L0.218248 33.6448L0.200784 33.3419L0.184495 33.0278L0.169393 32.7014L0.155473 32.361L0.142728 32.005L0.131166 31.6308L0.120786 31.2357L0.111585 30.8158L0.103555 30.3658L0.096708 29.8782L0.0910356 29.342L0.0865457 28.739L0.083227 28.0355L0.081087 27.1546L0.0801258 25.7806L0.0800649 24.4525Z" stroke="black" stroke-opacity="0.04" stroke-width="0.490255"/>
</g>
<path d="M21.6506 30.3358L15.7676 24.4528M15.7676 24.4528L21.6506 18.5697M15.7676 24.4528L30.4752 24.4528" stroke="white" stroke-width="1.96102" stroke-linecap="round" stroke-linejoin="round"/>
</g>
<defs>
<filter id="filter0_b_4_277" x="-4.08805" y="-3.24687" width="55.4007" height="55.3988" filterUnits="userSpaceOnUse" color-interpolation-filters="sRGB">
<feFlood flood-opacity="0" result="BackgroundImageFix"/>
<feGaussianBlur in="BackgroundImageFix" stdDeviation="1.96102"/>
<feComposite in2="SourceAlpha" operator="in" result="effect1_backgroundBlur_4_277"/>
<feBlend mode="normal" in="SourceGraphic" in2="effect1_backgroundBlur_4_277" result="shape"/>
</filter>
<clipPath id="clip0_4_277">
<rect x="47.1445" y="47.9847" width="47.0645" height="47.0645" rx="23.5322" transform="rotate(-180 47.1445 47.9847)" fill="white"/>
</clipPath>
</defs>
</svg>
