<svg width="50" height="50" viewBox="0 0 50 50" fill="none" xmlns="http://www.w3.org/2000/svg">
<circle cx="25" cy="25" r="25" fill="#323232"/>
<path fill-rule="evenodd" clip-rule="evenodd" d="M24.9987 10.8333C17.1744 10.8333 10.832 17.1757 10.832 24.9999C10.832 27.6774 11.5758 30.1849 12.8692 32.3213L11.6055 36.6166C11.533 36.8632 11.5282 37.1248 11.5917 37.3739C11.6552 37.623 11.7847 37.8504 11.9664 38.0322C12.1482 38.214 12.3756 38.3434 12.6247 38.4069C12.8738 38.4704 13.1354 38.4656 13.382 38.3931L17.6774 37.1294C19.8855 38.4655 22.4178 39.1701 24.9987 39.1666C32.8229 39.1666 39.1654 32.8242 39.1654 24.9999C39.1654 17.1757 32.8229 10.8333 24.9987 10.8333ZM21.7942 28.2058C24.6601 31.0703 27.3957 31.4486 28.3619 31.484C29.8309 31.5378 31.2618 30.4158 31.8185 29.1139C31.8888 28.952 31.9143 28.7741 31.8924 28.5989C31.8705 28.4237 31.8019 28.2576 31.6939 28.118C30.9175 27.1263 29.8678 26.4138 28.8421 25.7054C28.628 25.5574 28.3648 25.498 28.1078 25.5397C27.8508 25.5814 27.62 25.721 27.4637 25.9293L26.6137 27.2255C26.569 27.2952 26.4994 27.3452 26.419 27.3652C26.3387 27.3852 26.2538 27.3737 26.1816 27.3332C25.605 27.0031 24.7649 26.4421 24.1614 25.8386C23.5579 25.2351 23.0309 24.4333 22.7349 23.8935C22.6982 23.8249 22.6875 23.7454 22.705 23.6696C22.7224 23.5938 22.7668 23.5269 22.8298 23.4813L24.1388 22.5094C24.3256 22.347 24.4461 22.1215 24.4775 21.876C24.5088 21.6304 24.4488 21.3819 24.3088 21.1778C23.6741 20.2484 22.9346 19.0669 21.8622 18.2835C21.7238 18.1832 21.5617 18.1207 21.3918 18.102C21.2219 18.0834 21.05 18.1093 20.8932 18.1773C19.5899 18.7354 18.4622 20.1663 18.516 21.6382C18.5514 22.6043 18.9297 25.3399 21.7942 28.2058Z" fill="white"/>
</svg>
